<svg width="1440" height="1278" viewBox="0 0 1440 1278" fill="none" xmlns="http://www.w3.org/2000/svg">
<g clip-path="url(#clip0_21_3957)">
<path d="M91.7727 87.0682C95.8908 87.0682 99.2292 84.1053 99.2292 80.4504C99.2292 76.7954 95.8908 73.8325 91.7727 73.8325C87.6546 73.8325 84.3163 76.7954 84.3163 80.4504C84.3163 84.1053 87.6546 87.0682 91.7727 87.0682Z" fill="#00A4B9" fill-opacity="0.4"/>
<path d="M91.7727 244.62C95.8908 244.62 99.2292 241.658 99.2292 238.003C99.2292 234.348 95.8908 231.385 91.7727 231.385C87.6546 231.385 84.3163 234.348 84.3163 238.003C84.3163 241.658 87.6546 244.62 91.7727 244.62Z" fill="#00A4B9" fill-opacity="0.4"/>
<path d="M92.7925 -0.000244141H90.7524V319.499H92.7925V-0.000244141Z" fill="#00A4B9" fill-opacity="0.4"/>
<path d="M358.33 81.1625V79.3518L-1.65558 79.3518V81.1625L358.33 81.1625Z" fill="#00A4B9" fill-opacity="0.4"/>
<path d="M358.33 238.908V237.097L-1.65558 237.097V238.908L358.33 238.908Z" fill="#00A4B9" fill-opacity="0.4"/>
<path d="M264.262 87.0682C268.38 87.0682 271.718 84.1053 271.718 80.4504C271.718 76.7954 268.38 73.8325 264.262 73.8325C260.144 73.8325 256.805 76.7954 256.805 80.4504C256.805 84.1053 260.144 87.0682 264.262 87.0682Z" fill="#00A4B9" fill-opacity="0.4"/>
<path d="M264.262 244.62C268.38 244.62 271.718 241.658 271.718 238.003C271.718 234.348 268.38 231.385 264.262 231.385C260.144 231.385 256.805 234.348 256.805 238.003C256.805 241.658 260.144 244.62 264.262 244.62Z" fill="#00A4B9" fill-opacity="0.4"/>
<path d="M265.281 -0.000244141H263.241V319.499H265.281V-0.000244141Z" fill="#00A4B9" fill-opacity="0.4"/>
<path d="M91.7727 406.567C95.8908 406.567 99.2292 403.604 99.2292 399.949C99.2292 396.294 95.8908 393.332 91.7727 393.332C87.6546 393.332 84.3163 396.294 84.3163 399.949C84.3163 403.604 87.6546 406.567 91.7727 406.567Z" fill="#00A4B9" fill-opacity="0.4"/>
<path d="M91.7727 564.12C95.8908 564.12 99.2292 561.157 99.2292 557.502C99.2292 553.847 95.8908 550.884 91.7727 550.884C87.6546 550.884 84.3163 553.847 84.3163 557.502C84.3163 561.157 87.6546 564.12 91.7727 564.12Z" fill="#00A4B9" fill-opacity="0.4"/>
<path d="M92.7925 319.499H90.7524V638.998H92.7925V319.499Z" fill="#00A4B9" fill-opacity="0.4"/>
<path d="M358.33 400.662V398.851L-1.65558 398.851V400.662L358.33 400.662Z" fill="#00A4B9" fill-opacity="0.4"/>
<path d="M358.33 558.407V556.596L-1.65558 556.596V558.407L358.33 558.407Z" fill="#00A4B9" fill-opacity="0.4"/>
<path d="M264.262 406.567C268.38 406.567 271.718 403.604 271.718 399.949C271.718 396.294 268.38 393.332 264.262 393.332C260.144 393.332 256.805 396.294 256.805 399.949C256.805 403.604 260.144 406.567 264.262 406.567Z" fill="#00A4B9" fill-opacity="0.4"/>
<path d="M264.262 564.12C268.38 564.12 271.718 561.157 271.718 557.502C271.718 553.847 268.38 550.884 264.262 550.884C260.144 550.884 256.805 553.847 256.805 557.502C256.805 561.157 260.144 564.12 264.262 564.12Z" fill="#00A4B9" fill-opacity="0.4"/>
<path d="M265.281 319.499H263.241V638.998H265.281V319.499Z" fill="#00A4B9" fill-opacity="0.4"/>
<path d="M91.7727 726.067C95.8908 726.067 99.2292 723.104 99.2292 719.449C99.2292 715.794 95.8908 712.832 91.7727 712.832C87.6546 712.832 84.3163 715.794 84.3163 719.449C84.3163 723.104 87.6546 726.067 91.7727 726.067Z" fill="#00A4B9" fill-opacity="0.4"/>
<path d="M91.7727 883.62C95.8908 883.62 99.2292 880.657 99.2292 877.002C99.2292 873.347 95.8908 870.384 91.7727 870.384C87.6546 870.384 84.3163 873.347 84.3163 877.002C84.3163 880.657 87.6546 883.62 91.7727 883.62Z" fill="#00A4B9" fill-opacity="0.4"/>
<path d="M92.7925 638.999H90.7524V958.498H92.7925V638.999Z" fill="#00A4B9" fill-opacity="0.4"/>
<path d="M358.33 720.162V718.351L-1.65558 718.351V720.162L358.33 720.162Z" fill="#00A4B9" fill-opacity="0.4"/>
<path d="M358.33 877.907V876.096L-1.65558 876.096V877.907L358.33 877.907Z" fill="#00A4B9" fill-opacity="0.4"/>
<path d="M264.262 726.067C268.38 726.067 271.718 723.104 271.718 719.449C271.718 715.794 268.38 712.832 264.262 712.832C260.144 712.832 256.805 715.794 256.805 719.449C256.805 723.104 260.144 726.067 264.262 726.067Z" fill="#00A4B9" fill-opacity="0.4"/>
<path d="M264.262 883.62C268.38 883.62 271.718 880.657 271.718 877.002C271.718 873.347 268.38 870.384 264.262 870.384C260.144 870.384 256.805 873.347 256.805 877.002C256.805 880.657 260.144 883.62 264.262 883.62Z" fill="#00A4B9" fill-opacity="0.4"/>
<path d="M265.281 638.999H263.241V958.498H265.281V638.999Z" fill="#00A4B9" fill-opacity="0.4"/>
<path d="M91.7727 1045.57C95.8908 1045.57 99.2292 1042.6 99.2292 1038.95C99.2292 1035.29 95.8908 1032.33 91.7727 1032.33C87.6546 1032.33 84.3163 1035.29 84.3163 1038.95C84.3163 1042.6 87.6546 1045.57 91.7727 1045.57Z" fill="#00A4B9" fill-opacity="0.4"/>
<path d="M91.7727 1203.12C95.8908 1203.12 99.2292 1200.16 99.2292 1196.5C99.2292 1192.85 95.8908 1189.88 91.7727 1189.88C87.6546 1189.88 84.3163 1192.85 84.3163 1196.5C84.3163 1200.16 87.6546 1203.12 91.7727 1203.12Z" fill="#00A4B9" fill-opacity="0.4"/>
<path d="M92.7925 958.499H90.7524V1278H92.7925V958.499Z" fill="#00A4B9" fill-opacity="0.4"/>
<path d="M358.33 1039.66V1037.85H-1.65558V1039.66H358.33Z" fill="#00A4B9" fill-opacity="0.4"/>
<path d="M358.33 1197.41V1195.6H-1.65558V1197.41H358.33Z" fill="#00A4B9" fill-opacity="0.4"/>
<path d="M264.262 1045.57C268.38 1045.57 271.718 1042.6 271.718 1038.95C271.718 1035.29 268.38 1032.33 264.262 1032.33C260.144 1032.33 256.805 1035.29 256.805 1038.95C256.805 1042.6 260.144 1045.57 264.262 1045.57Z" fill="#00A4B9" fill-opacity="0.4"/>
<path d="M264.262 1203.12C268.38 1203.12 271.718 1200.16 271.718 1196.5C271.718 1192.85 268.38 1189.88 264.262 1189.88C260.144 1189.88 256.805 1192.85 256.805 1196.5C256.805 1200.16 260.144 1203.12 264.262 1203.12Z" fill="#00A4B9" fill-opacity="0.4"/>
<path d="M265.281 958.499H263.241V1278H265.281V958.499Z" fill="#00A4B9" fill-opacity="0.4"/>
<path d="M451.759 87.0682C455.877 87.0682 459.216 84.1053 459.216 80.4504C459.216 76.7954 455.877 73.8325 451.759 73.8325C447.641 73.8325 444.303 76.7954 444.303 80.4504C444.303 84.1053 447.641 87.0682 451.759 87.0682Z" fill="#00A4B9" fill-opacity="0.4"/>
<path d="M451.759 244.62C455.877 244.62 459.216 241.658 459.216 238.003C459.216 234.348 455.877 231.385 451.759 231.385C447.641 231.385 444.303 234.348 444.303 238.003C444.303 241.658 447.641 244.62 451.759 244.62Z" fill="#00A4B9" fill-opacity="0.4"/>
<path d="M452.779 -0.000244141H450.739V319.499H452.779V-0.000244141Z" fill="#00A4B9" fill-opacity="0.4"/>
<path d="M718.316 81.1625V79.3518L358.331 79.3518V81.1625L718.316 81.1625Z" fill="#00A4B9" fill-opacity="0.4"/>
<path d="M718.316 238.908V237.097L358.331 237.097V238.908L718.316 238.908Z" fill="#00A4B9" fill-opacity="0.4"/>
<path d="M624.248 87.0682C628.366 87.0682 631.705 84.1053 631.705 80.4504C631.705 76.7954 628.366 73.8325 624.248 73.8325C620.13 73.8325 616.792 76.7954 616.792 80.4504C616.792 84.1053 620.13 87.0682 624.248 87.0682Z" fill="#00A4B9" fill-opacity="0.4"/>
<path d="M624.248 244.62C628.366 244.62 631.705 241.658 631.705 238.003C631.705 234.348 628.366 231.385 624.248 231.385C620.13 231.385 616.792 234.348 616.792 238.003C616.792 241.658 620.13 244.62 624.248 244.62Z" fill="#00A4B9" fill-opacity="0.4"/>
<path d="M625.268 -0.000244141H623.228V319.499H625.268V-0.000244141Z" fill="#00A4B9" fill-opacity="0.4"/>
<path d="M451.759 406.567C455.877 406.567 459.216 403.604 459.216 399.949C459.216 396.294 455.877 393.332 451.759 393.332C447.641 393.332 444.303 396.294 444.303 399.949C444.303 403.604 447.641 406.567 451.759 406.567Z" fill="#00A4B9" fill-opacity="0.4"/>
<path d="M451.759 564.12C455.877 564.12 459.216 561.157 459.216 557.502C459.216 553.847 455.877 550.884 451.759 550.884C447.641 550.884 444.303 553.847 444.303 557.502C444.303 561.157 447.641 564.12 451.759 564.12Z" fill="#00A4B9" fill-opacity="0.4"/>
<path d="M452.779 319.499H450.739V638.998H452.779V319.499Z" fill="#00A4B9" fill-opacity="0.4"/>
<path d="M718.316 400.662V398.851L358.331 398.851V400.662L718.316 400.662Z" fill="#00A4B9" fill-opacity="0.4"/>
<path d="M718.316 558.407V556.596L358.331 556.596V558.407L718.316 558.407Z" fill="#00A4B9" fill-opacity="0.4"/>
<path d="M624.248 406.567C628.366 406.567 631.705 403.604 631.705 399.949C631.705 396.294 628.366 393.332 624.248 393.332C620.13 393.332 616.792 396.294 616.792 399.949C616.792 403.604 620.13 406.567 624.248 406.567Z" fill="#00A4B9" fill-opacity="0.4"/>
<path d="M624.248 564.12C628.366 564.12 631.705 561.157 631.705 557.502C631.705 553.847 628.366 550.884 624.248 550.884C620.13 550.884 616.792 553.847 616.792 557.502C616.792 561.157 620.13 564.12 624.248 564.12Z" fill="#00A4B9" fill-opacity="0.4"/>
<path d="M625.268 319.499H623.228V638.998H625.268V319.499Z" fill="#00A4B9" fill-opacity="0.4"/>
<path d="M451.759 726.067C455.877 726.067 459.216 723.104 459.216 719.449C459.216 715.794 455.877 712.832 451.759 712.832C447.641 712.832 444.303 715.794 444.303 719.449C444.303 723.104 447.641 726.067 451.759 726.067Z" fill="#00A4B9" fill-opacity="0.4"/>
<path d="M451.759 883.62C455.877 883.62 459.216 880.657 459.216 877.002C459.216 873.347 455.877 870.384 451.759 870.384C447.641 870.384 444.303 873.347 444.303 877.002C444.303 880.657 447.641 883.62 451.759 883.62Z" fill="#00A4B9" fill-opacity="0.4"/>
<path d="M452.779 638.999H450.739V958.498H452.779V638.999Z" fill="#00A4B9" fill-opacity="0.4"/>
<path d="M718.316 720.162V718.351L358.331 718.351V720.162L718.316 720.162Z" fill="#00A4B9" fill-opacity="0.4"/>
<path d="M718.316 877.907V876.096L358.331 876.096V877.907L718.316 877.907Z" fill="#00A4B9" fill-opacity="0.4"/>
<path d="M624.248 726.067C628.366 726.067 631.705 723.104 631.705 719.449C631.705 715.794 628.366 712.832 624.248 712.832C620.13 712.832 616.792 715.794 616.792 719.449C616.792 723.104 620.13 726.067 624.248 726.067Z" fill="#00A4B9" fill-opacity="0.4"/>
<path d="M624.248 883.62C628.366 883.62 631.705 880.657 631.705 877.002C631.705 873.347 628.366 870.384 624.248 870.384C620.13 870.384 616.792 873.347 616.792 877.002C616.792 880.657 620.13 883.62 624.248 883.62Z" fill="#00A4B9" fill-opacity="0.4"/>
<path d="M625.268 638.999H623.228V958.498H625.268V638.999Z" fill="#00A4B9" fill-opacity="0.4"/>
<path d="M451.759 1045.57C455.877 1045.57 459.216 1042.6 459.216 1038.95C459.216 1035.29 455.877 1032.33 451.759 1032.33C447.641 1032.33 444.303 1035.29 444.303 1038.95C444.303 1042.6 447.641 1045.57 451.759 1045.57Z" fill="#00A4B9" fill-opacity="0.4"/>
<path d="M451.759 1203.12C455.877 1203.12 459.216 1200.16 459.216 1196.5C459.216 1192.85 455.877 1189.88 451.759 1189.88C447.641 1189.88 444.303 1192.85 444.303 1196.5C444.303 1200.16 447.641 1203.12 451.759 1203.12Z" fill="#00A4B9" fill-opacity="0.4"/>
<path d="M452.779 958.499H450.739V1278H452.779V958.499Z" fill="#00A4B9" fill-opacity="0.4"/>
<path d="M718.316 1039.66V1037.85H358.331V1039.66H718.316Z" fill="#00A4B9" fill-opacity="0.4"/>
<path d="M718.316 1197.41V1195.6H358.331V1197.41H718.316Z" fill="#00A4B9" fill-opacity="0.4"/>
<path d="M624.248 1045.57C628.366 1045.57 631.705 1042.6 631.705 1038.95C631.705 1035.29 628.366 1032.33 624.248 1032.33C620.13 1032.33 616.792 1035.29 616.792 1038.95C616.792 1042.6 620.13 1045.57 624.248 1045.57Z" fill="#00A4B9" fill-opacity="0.4"/>
<path d="M624.248 1203.12C628.366 1203.12 631.705 1200.16 631.705 1196.5C631.705 1192.85 628.366 1189.88 624.248 1189.88C620.13 1189.88 616.792 1192.85 616.792 1196.5C616.792 1200.16 620.13 1203.12 624.248 1203.12Z" fill="#00A4B9" fill-opacity="0.4"/>
<path d="M625.268 958.499H623.228V1278H625.268V958.499Z" fill="#00A4B9" fill-opacity="0.4"/>
<path d="M811.746 87.0682C815.864 87.0682 819.202 84.1053 819.202 80.4504C819.202 76.7954 815.864 73.8325 811.746 73.8325C807.627 73.8325 804.289 76.7954 804.289 80.4504C804.289 84.1053 807.627 87.0682 811.746 87.0682Z" fill="#00A4B9" fill-opacity="0.4"/>
<path d="M811.746 244.62C815.864 244.62 819.202 241.658 819.202 238.003C819.202 234.348 815.864 231.385 811.746 231.385C807.627 231.385 804.289 234.348 804.289 238.003C804.289 241.658 807.627 244.62 811.746 244.62Z" fill="#00A4B9" fill-opacity="0.4"/>
<path d="M812.765 -0.000244141H810.725V319.499H812.765V-0.000244141Z" fill="#00A4B9" fill-opacity="0.4"/>
<path d="M1078.3 81.1625V79.3518L718.317 79.3518V81.1625L1078.3 81.1625Z" fill="#00A4B9" fill-opacity="0.4"/>
<path d="M1078.3 238.908V237.097L718.317 237.097V238.908L1078.3 238.908Z" fill="#00A4B9" fill-opacity="0.4"/>
<path d="M984.235 87.0682C988.353 87.0682 991.691 84.1053 991.691 80.4504C991.691 76.7954 988.353 73.8325 984.235 73.8325C980.116 73.8325 976.778 76.7954 976.778 80.4504C976.778 84.1053 980.116 87.0682 984.235 87.0682Z" fill="#00A4B9" fill-opacity="0.4"/>
<path d="M984.235 244.62C988.353 244.62 991.691 241.658 991.691 238.003C991.691 234.348 988.353 231.385 984.235 231.385C980.116 231.385 976.778 234.348 976.778 238.003C976.778 241.658 980.116 244.62 984.235 244.62Z" fill="#00A4B9" fill-opacity="0.4"/>
<path d="M985.254 -0.000244141H983.214V319.499H985.254V-0.000244141Z" fill="#00A4B9" fill-opacity="0.4"/>
<path d="M811.746 406.567C815.864 406.567 819.202 403.604 819.202 399.949C819.202 396.294 815.864 393.332 811.746 393.332C807.627 393.332 804.289 396.294 804.289 399.949C804.289 403.604 807.627 406.567 811.746 406.567Z" fill="#00A4B9" fill-opacity="0.4"/>
<path d="M811.746 564.12C815.864 564.12 819.202 561.157 819.202 557.502C819.202 553.847 815.864 550.884 811.746 550.884C807.627 550.884 804.289 553.847 804.289 557.502C804.289 561.157 807.627 564.12 811.746 564.12Z" fill="#00A4B9" fill-opacity="0.4"/>
<path d="M812.765 319.499H810.725V638.998H812.765V319.499Z" fill="#00A4B9" fill-opacity="0.4"/>
<path d="M1078.3 400.662V398.851L718.317 398.851V400.662L1078.3 400.662Z" fill="#00A4B9" fill-opacity="0.4"/>
<path d="M1078.3 558.407V556.596L718.317 556.596V558.407L1078.3 558.407Z" fill="#00A4B9" fill-opacity="0.4"/>
<path d="M984.235 406.567C988.353 406.567 991.691 403.604 991.691 399.949C991.691 396.294 988.353 393.332 984.235 393.332C980.116 393.332 976.778 396.294 976.778 399.949C976.778 403.604 980.116 406.567 984.235 406.567Z" fill="#00A4B9" fill-opacity="0.4"/>
<path d="M984.235 564.12C988.353 564.12 991.691 561.157 991.691 557.502C991.691 553.847 988.353 550.884 984.235 550.884C980.116 550.884 976.778 553.847 976.778 557.502C976.778 561.157 980.116 564.12 984.235 564.12Z" fill="#00A4B9" fill-opacity="0.4"/>
<path d="M985.254 319.499H983.214V638.998H985.254V319.499Z" fill="#00A4B9" fill-opacity="0.4"/>
<path d="M811.746 726.067C815.864 726.067 819.202 723.104 819.202 719.449C819.202 715.794 815.864 712.832 811.746 712.832C807.627 712.832 804.289 715.794 804.289 719.449C804.289 723.104 807.627 726.067 811.746 726.067Z" fill="#00A4B9" fill-opacity="0.4"/>
<path d="M811.746 883.62C815.864 883.62 819.202 880.657 819.202 877.002C819.202 873.347 815.864 870.384 811.746 870.384C807.627 870.384 804.289 873.347 804.289 877.002C804.289 880.657 807.627 883.62 811.746 883.62Z" fill="#00A4B9" fill-opacity="0.4"/>
<path d="M812.765 638.999H810.725V958.498H812.765V638.999Z" fill="#00A4B9" fill-opacity="0.4"/>
<path d="M1078.3 720.162V718.351L718.317 718.351V720.162L1078.3 720.162Z" fill="#00A4B9" fill-opacity="0.4"/>
<path d="M1078.3 877.907V876.096L718.317 876.096V877.907L1078.3 877.907Z" fill="#00A4B9" fill-opacity="0.4"/>
<path d="M984.235 726.067C988.353 726.067 991.691 723.104 991.691 719.449C991.691 715.794 988.353 712.832 984.235 712.832C980.116 712.832 976.778 715.794 976.778 719.449C976.778 723.104 980.116 726.067 984.235 726.067Z" fill="#00A4B9" fill-opacity="0.4"/>
<path d="M984.235 883.62C988.353 883.62 991.691 880.657 991.691 877.002C991.691 873.347 988.353 870.384 984.235 870.384C980.116 870.384 976.778 873.347 976.778 877.002C976.778 880.657 980.116 883.62 984.235 883.62Z" fill="#00A4B9" fill-opacity="0.4"/>
<path d="M985.254 638.999H983.214V958.498H985.254V638.999Z" fill="#00A4B9" fill-opacity="0.4"/>
<path d="M811.746 1045.57C815.864 1045.57 819.202 1042.6 819.202 1038.95C819.202 1035.29 815.864 1032.33 811.746 1032.33C807.627 1032.33 804.289 1035.29 804.289 1038.95C804.289 1042.6 807.627 1045.57 811.746 1045.57Z" fill="#00A4B9" fill-opacity="0.4"/>
<path d="M811.746 1203.12C815.864 1203.12 819.202 1200.16 819.202 1196.5C819.202 1192.85 815.864 1189.88 811.746 1189.88C807.627 1189.88 804.289 1192.85 804.289 1196.5C804.289 1200.16 807.627 1203.12 811.746 1203.12Z" fill="#00A4B9" fill-opacity="0.4"/>
<path d="M812.765 958.499H810.725V1278H812.765V958.499Z" fill="#00A4B9" fill-opacity="0.4"/>
<path d="M1078.3 1039.66V1037.85H718.317V1039.66H1078.3Z" fill="#00A4B9" fill-opacity="0.4"/>
<path d="M1078.3 1197.41V1195.6H718.317V1197.41H1078.3Z" fill="#00A4B9" fill-opacity="0.4"/>
<path d="M984.235 1045.57C988.353 1045.57 991.691 1042.6 991.691 1038.95C991.691 1035.29 988.353 1032.33 984.235 1032.33C980.116 1032.33 976.778 1035.29 976.778 1038.95C976.778 1042.6 980.116 1045.57 984.235 1045.57Z" fill="#00A4B9" fill-opacity="0.4"/>
<path d="M984.235 1203.12C988.353 1203.12 991.691 1200.16 991.691 1196.5C991.691 1192.85 988.353 1189.88 984.235 1189.88C980.116 1189.88 976.778 1192.85 976.778 1196.5C976.778 1200.16 980.116 1203.12 984.235 1203.12Z" fill="#00A4B9" fill-opacity="0.4"/>
<path d="M985.254 958.499H983.214V1278H985.254V958.499Z" fill="#00A4B9" fill-opacity="0.4"/>
<path d="M1171.73 87.0682C1175.85 87.0682 1179.19 84.1053 1179.19 80.4504C1179.19 76.7954 1175.85 73.8325 1171.73 73.8325C1167.61 73.8325 1164.28 76.7954 1164.28 80.4504C1164.28 84.1053 1167.61 87.0682 1171.73 87.0682Z" fill="#00A4B9" fill-opacity="0.4"/>
<path d="M1171.73 244.62C1175.85 244.62 1179.19 241.658 1179.19 238.003C1179.19 234.348 1175.85 231.385 1171.73 231.385C1167.61 231.385 1164.28 234.348 1164.28 238.003C1164.28 241.658 1167.61 244.62 1171.73 244.62Z" fill="#00A4B9" fill-opacity="0.4"/>
<path d="M1172.75 -0.000244141H1170.71V319.499H1172.75V-0.000244141Z" fill="#00A4B9" fill-opacity="0.4"/>
<path d="M1438.29 81.1625V79.3518L1078.3 79.3518V81.1625L1438.29 81.1625Z" fill="#00A4B9" fill-opacity="0.4"/>
<path d="M1438.29 238.908V237.097L1078.3 237.097V238.908L1438.29 238.908Z" fill="#00A4B9" fill-opacity="0.4"/>
<path d="M1344.22 87.0682C1348.34 87.0682 1351.68 84.1053 1351.68 80.4504C1351.68 76.7954 1348.34 73.8325 1344.22 73.8325C1340.1 73.8325 1336.76 76.7954 1336.76 80.4504C1336.76 84.1053 1340.1 87.0682 1344.22 87.0682Z" fill="#00A4B9" fill-opacity="0.4"/>
<path d="M1344.22 244.62C1348.34 244.62 1351.68 241.658 1351.68 238.003C1351.68 234.348 1348.34 231.385 1344.22 231.385C1340.1 231.385 1336.76 234.348 1336.76 238.003C1336.76 241.658 1340.1 244.62 1344.22 244.62Z" fill="#00A4B9" fill-opacity="0.4"/>
<path d="M1345.24 -0.000244141H1343.2V319.499H1345.24V-0.000244141Z" fill="#00A4B9" fill-opacity="0.4"/>
<path d="M1171.73 406.567C1175.85 406.567 1179.19 403.604 1179.19 399.949C1179.19 396.294 1175.85 393.332 1171.73 393.332C1167.61 393.332 1164.28 396.294 1164.28 399.949C1164.28 403.604 1167.61 406.567 1171.73 406.567Z" fill="#00A4B9" fill-opacity="0.4"/>
<path d="M1171.73 564.12C1175.85 564.12 1179.19 561.157 1179.19 557.502C1179.19 553.847 1175.85 550.884 1171.73 550.884C1167.61 550.884 1164.28 553.847 1164.28 557.502C1164.28 561.157 1167.61 564.12 1171.73 564.12Z" fill="#00A4B9" fill-opacity="0.4"/>
<path d="M1172.75 319.499H1170.71V638.998H1172.75V319.499Z" fill="#00A4B9" fill-opacity="0.4"/>
<path d="M1438.29 400.662V398.851L1078.3 398.851V400.662L1438.29 400.662Z" fill="#00A4B9" fill-opacity="0.4"/>
<path d="M1438.29 558.407V556.596L1078.3 556.596V558.407L1438.29 558.407Z" fill="#00A4B9" fill-opacity="0.4"/>
<path d="M1344.22 406.567C1348.34 406.567 1351.68 403.604 1351.68 399.949C1351.68 396.294 1348.34 393.332 1344.22 393.332C1340.1 393.332 1336.76 396.294 1336.76 399.949C1336.76 403.604 1340.1 406.567 1344.22 406.567Z" fill="#00A4B9" fill-opacity="0.4"/>
<path d="M1344.22 564.12C1348.34 564.12 1351.68 561.157 1351.68 557.502C1351.68 553.847 1348.34 550.884 1344.22 550.884C1340.1 550.884 1336.76 553.847 1336.76 557.502C1336.76 561.157 1340.1 564.12 1344.22 564.12Z" fill="#00A4B9" fill-opacity="0.4"/>
<path d="M1345.24 319.499H1343.2V638.998H1345.24V319.499Z" fill="#00A4B9" fill-opacity="0.4"/>
<path d="M1171.73 726.067C1175.85 726.067 1179.19 723.104 1179.19 719.449C1179.19 715.794 1175.85 712.832 1171.73 712.832C1167.61 712.832 1164.28 715.794 1164.28 719.449C1164.28 723.104 1167.61 726.067 1171.73 726.067Z" fill="#00A4B9" fill-opacity="0.4"/>
<path d="M1171.73 883.62C1175.85 883.62 1179.19 880.657 1179.19 877.002C1179.19 873.347 1175.85 870.384 1171.73 870.384C1167.61 870.384 1164.28 873.347 1164.28 877.002C1164.28 880.657 1167.61 883.62 1171.73 883.62Z" fill="#00A4B9" fill-opacity="0.4"/>
<path d="M1172.75 638.999H1170.71V958.498H1172.75V638.999Z" fill="#00A4B9" fill-opacity="0.4"/>
<path d="M1438.29 720.162V718.351L1078.3 718.351V720.162L1438.29 720.162Z" fill="#00A4B9" fill-opacity="0.4"/>
<path d="M1438.29 877.907V876.096L1078.3 876.096V877.907L1438.29 877.907Z" fill="#00A4B9" fill-opacity="0.4"/>
<path d="M1344.22 726.067C1348.34 726.067 1351.68 723.104 1351.68 719.449C1351.68 715.794 1348.34 712.832 1344.22 712.832C1340.1 712.832 1336.76 715.794 1336.76 719.449C1336.76 723.104 1340.1 726.067 1344.22 726.067Z" fill="#00A4B9" fill-opacity="0.4"/>
<path d="M1344.22 883.62C1348.34 883.62 1351.68 880.657 1351.68 877.002C1351.68 873.347 1348.34 870.384 1344.22 870.384C1340.1 870.384 1336.76 873.347 1336.76 877.002C1336.76 880.657 1340.1 883.62 1344.22 883.62Z" fill="#00A4B9" fill-opacity="0.4"/>
<path d="M1345.24 638.999H1343.2V958.498H1345.24V638.999Z" fill="#00A4B9" fill-opacity="0.4"/>
<path d="M1171.02 1045.48C1175.17 1045.48 1178.54 1042.52 1178.54 1038.86C1178.54 1035.21 1175.17 1032.25 1171.02 1032.25C1166.86 1032.25 1163.49 1035.21 1163.49 1038.86C1163.49 1042.52 1166.86 1045.48 1171.02 1045.48Z" fill="#00A4B9" fill-opacity="0.4"/>
<path d="M1171.02 1202.92C1175.17 1202.92 1178.54 1199.96 1178.54 1196.31C1178.54 1192.66 1175.17 1189.7 1171.02 1189.7C1166.86 1189.7 1163.49 1192.66 1163.49 1196.31C1163.49 1199.96 1166.86 1202.92 1171.02 1202.92Z" fill="#00A4B9" fill-opacity="0.4"/>
<path d="M1172.05 958.466H1169.99V1277.75H1172.05V958.466Z" fill="#00A4B9" fill-opacity="0.4"/>
<path d="M1439.96 1039.57V1037.77H1076.75V1039.57H1439.96Z" fill="#00A4B9" fill-opacity="0.4"/>
<path d="M1439.96 1197.22V1195.41H1076.75V1197.22H1439.96Z" fill="#00A4B9" fill-opacity="0.4"/>
<path d="M1345.05 1045.48C1349.21 1045.48 1352.57 1042.52 1352.57 1038.86C1352.57 1035.21 1349.21 1032.25 1345.05 1032.25C1340.9 1032.25 1337.53 1035.21 1337.53 1038.86C1337.53 1042.52 1340.9 1045.48 1345.05 1045.48Z" fill="#00A4B9" fill-opacity="0.4"/>
<path d="M1345.05 1202.92C1349.21 1202.92 1352.57 1199.96 1352.57 1196.31C1352.57 1192.66 1349.21 1189.7 1345.05 1189.7C1340.9 1189.7 1337.53 1192.66 1337.53 1196.31C1337.53 1199.96 1340.9 1202.92 1345.05 1202.92Z" fill="#00A4B9" fill-opacity="0.4"/>
<path d="M1346.08 958.466H1344.02V1277.75H1346.08V958.466Z" fill="#00A4B9" fill-opacity="0.4"/>
</g>
<defs>
<clipPath id="clip0_21_3957">
<rect width="1442" height="1278" fill="white" transform="translate(-2)"/>
</clipPath>
</defs>
</svg>
