<svg width="1437" height="1278" viewBox="0 0 1437 1278" fill="none" xmlns="http://www.w3.org/2000/svg">
<g clip-path="url(#clip0_21_4941)">
<path d="M93.4476 89.0682C97.5514 89.0682 100.878 86.1053 100.878 82.4504C100.878 78.7954 97.5514 75.8325 93.4476 75.8325C89.3438 75.8325 86.017 78.7954 86.017 82.4504C86.017 86.1053 89.3438 89.0682 93.4476 89.0682Z" fill="white" fill-opacity="0.5"/>
<path d="M93.4476 246.62C97.5514 246.62 100.878 243.658 100.878 240.003C100.878 236.348 97.5514 233.385 93.4476 233.385C89.3438 233.385 86.017 236.348 86.017 240.003C86.017 243.658 89.3438 246.62 93.4476 246.62Z" fill="white" fill-opacity="0.5"/>
<path d="M94.4639 1.99976H92.4308V321.499H94.4639V1.99976Z" fill="white" fill-opacity="0.5"/>
<path d="M359.08 83.1625V81.3518L0.343231 81.3518V83.1625L359.08 83.1625Z" fill="white" fill-opacity="0.5"/>
<path d="M359.08 240.908V239.097L0.343231 239.097V240.908L359.08 240.908Z" fill="white" fill-opacity="0.5"/>
<path d="M265.338 89.0682C269.442 89.0682 272.769 86.1053 272.769 82.4504C272.769 78.7954 269.442 75.8325 265.338 75.8325C261.235 75.8325 257.908 78.7954 257.908 82.4504C257.908 86.1053 261.235 89.0682 265.338 89.0682Z" fill="white" fill-opacity="0.5"/>
<path d="M265.338 246.62C269.442 246.62 272.769 243.658 272.769 240.003C272.769 236.348 269.442 233.385 265.338 233.385C261.235 233.385 257.908 236.348 257.908 240.003C257.908 243.658 261.235 246.62 265.338 246.62Z" fill="white" fill-opacity="0.5"/>
<path d="M266.355 1.99976H264.322V321.499H266.355V1.99976Z" fill="white" fill-opacity="0.5"/>
<path d="M93.4476 408.567C97.5514 408.567 100.878 405.604 100.878 401.949C100.878 398.294 97.5514 395.332 93.4476 395.332C89.3438 395.332 86.017 398.294 86.017 401.949C86.017 405.604 89.3438 408.567 93.4476 408.567Z" fill="white" fill-opacity="0.5"/>
<path d="M93.4476 566.12C97.5514 566.12 100.878 563.157 100.878 559.502C100.878 555.847 97.5514 552.884 93.4476 552.884C89.3438 552.884 86.017 555.847 86.017 559.502C86.017 563.157 89.3438 566.12 93.4476 566.12Z" fill="white" fill-opacity="0.5"/>
<path d="M94.4639 321.499H92.4308V640.998H94.4639V321.499Z" fill="white" fill-opacity="0.5"/>
<path d="M359.08 402.662V400.851L0.343231 400.851V402.662L359.08 402.662Z" fill="white" fill-opacity="0.5"/>
<path d="M359.08 560.407V558.596L0.343231 558.596V560.407L359.08 560.407Z" fill="white" fill-opacity="0.5"/>
<path d="M265.338 408.567C269.442 408.567 272.769 405.604 272.769 401.949C272.769 398.294 269.442 395.332 265.338 395.332C261.235 395.332 257.908 398.294 257.908 401.949C257.908 405.604 261.235 408.567 265.338 408.567Z" fill="white" fill-opacity="0.5"/>
<path d="M265.338 566.12C269.442 566.12 272.769 563.157 272.769 559.502C272.769 555.847 269.442 552.884 265.338 552.884C261.235 552.884 257.908 555.847 257.908 559.502C257.908 563.157 261.235 566.12 265.338 566.12Z" fill="white" fill-opacity="0.5"/>
<path d="M266.355 321.499H264.322V640.998H266.355V321.499Z" fill="white" fill-opacity="0.5"/>
<path d="M93.4476 728.067C97.5514 728.067 100.878 725.104 100.878 721.449C100.878 717.794 97.5514 714.831 93.4476 714.831C89.3438 714.831 86.017 717.794 86.017 721.449C86.017 725.104 89.3438 728.067 93.4476 728.067Z" fill="white" fill-opacity="0.5"/>
<path d="M93.4476 885.62C97.5514 885.62 100.878 882.657 100.878 879.002C100.878 875.347 97.5514 872.384 93.4476 872.384C89.3438 872.384 86.017 875.347 86.017 879.002C86.017 882.657 89.3438 885.62 93.4476 885.62Z" fill="white" fill-opacity="0.5"/>
<path d="M94.4639 640.999H92.4308V960.498H94.4639V640.999Z" fill="white" fill-opacity="0.5"/>
<path d="M359.08 722.162V720.351L0.343231 720.351V722.162L359.08 722.162Z" fill="white" fill-opacity="0.5"/>
<path d="M359.08 879.907V878.096L0.343231 878.096V879.907L359.08 879.907Z" fill="white" fill-opacity="0.5"/>
<path d="M265.338 728.067C269.442 728.067 272.769 725.104 272.769 721.449C272.769 717.794 269.442 714.831 265.338 714.831C261.235 714.831 257.908 717.794 257.908 721.449C257.908 725.104 261.235 728.067 265.338 728.067Z" fill="white" fill-opacity="0.5"/>
<path d="M265.338 885.62C269.442 885.62 272.769 882.657 272.769 879.002C272.769 875.347 269.442 872.384 265.338 872.384C261.235 872.384 257.908 875.347 257.908 879.002C257.908 882.657 261.235 885.62 265.338 885.62Z" fill="white" fill-opacity="0.5"/>
<path d="M266.355 640.999H264.322V960.498H266.355V640.999Z" fill="white" fill-opacity="0.5"/>
<path d="M93.4476 1047.57C97.5514 1047.57 100.878 1044.6 100.878 1040.95C100.878 1037.29 97.5514 1034.33 93.4476 1034.33C89.3438 1034.33 86.017 1037.29 86.017 1040.95C86.017 1044.6 89.3438 1047.57 93.4476 1047.57Z" fill="white" fill-opacity="0.5"/>
<path d="M93.4476 1205.12C97.5514 1205.12 100.878 1202.16 100.878 1198.5C100.878 1194.85 97.5514 1191.88 93.4476 1191.88C89.3438 1191.88 86.017 1194.85 86.017 1198.5C86.017 1202.16 89.3438 1205.12 93.4476 1205.12Z" fill="white" fill-opacity="0.5"/>
<path d="M94.4639 960.499H92.4308V1280H94.4639V960.499Z" fill="white" fill-opacity="0.5"/>
<path d="M359.08 1041.66V1039.85H0.343231V1041.66H359.08Z" fill="white" fill-opacity="0.5"/>
<path d="M359.08 1199.41V1197.6H0.343231V1199.41H359.08Z" fill="white" fill-opacity="0.5"/>
<path d="M265.338 1047.57C269.442 1047.57 272.769 1044.6 272.769 1040.95C272.769 1037.29 269.442 1034.33 265.338 1034.33C261.235 1034.33 257.908 1037.29 257.908 1040.95C257.908 1044.6 261.235 1047.57 265.338 1047.57Z" fill="white" fill-opacity="0.5"/>
<path d="M265.338 1205.12C269.442 1205.12 272.769 1202.16 272.769 1198.5C272.769 1194.85 269.442 1191.88 265.338 1191.88C261.235 1191.88 257.908 1194.85 257.908 1198.5C257.908 1202.16 261.235 1205.12 265.338 1205.12Z" fill="white" fill-opacity="0.5"/>
<path d="M266.355 960.499H264.322V1280H266.355V960.499Z" fill="white" fill-opacity="0.5"/>
<path d="M452.186 89.0682C456.29 89.0682 459.616 86.1053 459.616 82.4504C459.616 78.7954 456.29 75.8325 452.186 75.8325C448.082 75.8325 444.755 78.7954 444.755 82.4504C444.755 86.1053 448.082 89.0682 452.186 89.0682Z" fill="white" fill-opacity="0.5"/>
<path d="M452.186 246.62C456.29 246.62 459.616 243.658 459.616 240.003C459.616 236.348 456.29 233.385 452.186 233.385C448.082 233.385 444.755 236.348 444.755 240.003C444.755 243.658 448.082 246.62 452.186 246.62Z" fill="white" fill-opacity="0.5"/>
<path d="M453.202 1.99976H451.169V321.499H453.202V1.99976Z" fill="white" fill-opacity="0.5"/>
<path d="M717.818 83.1625V81.3518L359.081 81.3518V83.1625L717.818 83.1625Z" fill="white" fill-opacity="0.5"/>
<path d="M717.818 240.908V239.097L359.081 239.097V240.908L717.818 240.908Z" fill="white" fill-opacity="0.5"/>
<path d="M624.077 89.0682C628.18 89.0682 631.507 86.1053 631.507 82.4504C631.507 78.7954 628.18 75.8325 624.077 75.8325C619.973 75.8325 616.646 78.7954 616.646 82.4504C616.646 86.1053 619.973 89.0682 624.077 89.0682Z" fill="white" fill-opacity="0.5"/>
<path d="M624.077 246.62C628.18 246.62 631.507 243.658 631.507 240.003C631.507 236.348 628.18 233.385 624.077 233.385C619.973 233.385 616.646 236.348 616.646 240.003C616.646 243.658 619.973 246.62 624.077 246.62Z" fill="white" fill-opacity="0.5"/>
<path d="M625.093 1.99976H623.06V321.499H625.093V1.99976Z" fill="white" fill-opacity="0.5"/>
<path d="M452.186 408.567C456.29 408.567 459.616 405.604 459.616 401.949C459.616 398.294 456.29 395.332 452.186 395.332C448.082 395.332 444.755 398.294 444.755 401.949C444.755 405.604 448.082 408.567 452.186 408.567Z" fill="white" fill-opacity="0.5"/>
<path d="M452.186 566.12C456.29 566.12 459.616 563.157 459.616 559.502C459.616 555.847 456.29 552.884 452.186 552.884C448.082 552.884 444.755 555.847 444.755 559.502C444.755 563.157 448.082 566.12 452.186 566.12Z" fill="white" fill-opacity="0.5"/>
<path d="M453.202 321.499H451.169V640.998H453.202V321.499Z" fill="white" fill-opacity="0.5"/>
<path d="M717.818 402.662V400.851L359.081 400.851V402.662L717.818 402.662Z" fill="white" fill-opacity="0.5"/>
<path d="M717.818 560.407V558.596L359.081 558.596V560.407L717.818 560.407Z" fill="white" fill-opacity="0.5"/>
<path d="M624.077 408.567C628.18 408.567 631.507 405.604 631.507 401.949C631.507 398.294 628.18 395.332 624.077 395.332C619.973 395.332 616.646 398.294 616.646 401.949C616.646 405.604 619.973 408.567 624.077 408.567Z" fill="white" fill-opacity="0.5"/>
<path d="M624.077 566.12C628.18 566.12 631.507 563.157 631.507 559.502C631.507 555.847 628.18 552.884 624.077 552.884C619.973 552.884 616.646 555.847 616.646 559.502C616.646 563.157 619.973 566.12 624.077 566.12Z" fill="white" fill-opacity="0.5"/>
<path d="M625.093 321.499H623.06V640.998H625.093V321.499Z" fill="white" fill-opacity="0.5"/>
<path d="M452.186 728.067C456.29 728.067 459.616 725.104 459.616 721.449C459.616 717.794 456.29 714.831 452.186 714.831C448.082 714.831 444.755 717.794 444.755 721.449C444.755 725.104 448.082 728.067 452.186 728.067Z" fill="white" fill-opacity="0.5"/>
<path d="M452.186 885.62C456.29 885.62 459.616 882.657 459.616 879.002C459.616 875.347 456.29 872.384 452.186 872.384C448.082 872.384 444.755 875.347 444.755 879.002C444.755 882.657 448.082 885.62 452.186 885.62Z" fill="white" fill-opacity="0.5"/>
<path d="M453.202 640.999H451.169V960.498H453.202V640.999Z" fill="white" fill-opacity="0.5"/>
<path d="M717.818 722.162V720.351L359.081 720.351V722.162L717.818 722.162Z" fill="white" fill-opacity="0.5"/>
<path d="M717.818 879.907V878.096L359.081 878.096V879.907L717.818 879.907Z" fill="white" fill-opacity="0.5"/>
<path d="M624.077 728.067C628.18 728.067 631.507 725.104 631.507 721.449C631.507 717.794 628.18 714.831 624.077 714.831C619.973 714.831 616.646 717.794 616.646 721.449C616.646 725.104 619.973 728.067 624.077 728.067Z" fill="white" fill-opacity="0.5"/>
<path d="M624.077 885.62C628.18 885.62 631.507 882.657 631.507 879.002C631.507 875.347 628.18 872.384 624.077 872.384C619.973 872.384 616.646 875.347 616.646 879.002C616.646 882.657 619.973 885.62 624.077 885.62Z" fill="white" fill-opacity="0.5"/>
<path d="M625.093 640.999H623.06V960.498H625.093V640.999Z" fill="white" fill-opacity="0.5"/>
<path d="M452.186 1047.57C456.29 1047.57 459.616 1044.6 459.616 1040.95C459.616 1037.29 456.29 1034.33 452.186 1034.33C448.082 1034.33 444.755 1037.29 444.755 1040.95C444.755 1044.6 448.082 1047.57 452.186 1047.57Z" fill="white" fill-opacity="0.5"/>
<path d="M452.186 1205.12C456.29 1205.12 459.616 1202.16 459.616 1198.5C459.616 1194.85 456.29 1191.88 452.186 1191.88C448.082 1191.88 444.755 1194.85 444.755 1198.5C444.755 1202.16 448.082 1205.12 452.186 1205.12Z" fill="white" fill-opacity="0.5"/>
<path d="M453.202 960.499H451.169V1280H453.202V960.499Z" fill="white" fill-opacity="0.5"/>
<path d="M717.818 1041.66V1039.85H359.081V1041.66H717.818Z" fill="white" fill-opacity="0.5"/>
<path d="M717.818 1199.41V1197.6H359.081V1199.41H717.818Z" fill="white" fill-opacity="0.5"/>
<path d="M624.077 1047.57C628.18 1047.57 631.507 1044.6 631.507 1040.95C631.507 1037.29 628.18 1034.33 624.077 1034.33C619.973 1034.33 616.646 1037.29 616.646 1040.95C616.646 1044.6 619.973 1047.57 624.077 1047.57Z" fill="white" fill-opacity="0.5"/>
<path d="M624.077 1205.12C628.18 1205.12 631.507 1202.16 631.507 1198.5C631.507 1194.85 628.18 1191.88 624.077 1191.88C619.973 1191.88 616.646 1194.85 616.646 1198.5C616.646 1202.16 619.973 1205.12 624.077 1205.12Z" fill="white" fill-opacity="0.5"/>
<path d="M625.093 960.499H623.06V1280H625.093V960.499Z" fill="white" fill-opacity="0.5"/>
<path d="M810.924 89.0682C815.028 89.0682 818.354 86.1053 818.354 82.4504C818.354 78.7954 815.028 75.8325 810.924 75.8325C806.82 75.8325 803.493 78.7954 803.493 82.4504C803.493 86.1053 806.82 89.0682 810.924 89.0682Z" fill="white" fill-opacity="0.5"/>
<path d="M810.924 246.62C815.028 246.62 818.354 243.658 818.354 240.003C818.354 236.348 815.028 233.385 810.924 233.385C806.82 233.385 803.493 236.348 803.493 240.003C803.493 243.658 806.82 246.62 810.924 246.62Z" fill="white" fill-opacity="0.5"/>
<path d="M811.94 1.99976H809.907V321.499H811.94V1.99976Z" fill="white" fill-opacity="0.5"/>
<path d="M1076.56 83.1625V81.3518L717.82 81.3518V83.1625L1076.56 83.1625Z" fill="white" fill-opacity="0.5"/>
<path d="M1076.56 240.908V239.097L717.82 239.097V240.908L1076.56 240.908Z" fill="white" fill-opacity="0.5"/>
<path d="M982.815 89.0682C986.919 89.0682 990.245 86.1053 990.245 82.4504C990.245 78.7954 986.919 75.8325 982.815 75.8325C978.711 75.8325 975.384 78.7954 975.384 82.4504C975.384 86.1053 978.711 89.0682 982.815 89.0682Z" fill="white" fill-opacity="0.5"/>
<path d="M982.815 246.62C986.919 246.62 990.245 243.658 990.245 240.003C990.245 236.348 986.919 233.385 982.815 233.385C978.711 233.385 975.384 236.348 975.384 240.003C975.384 243.658 978.711 246.62 982.815 246.62Z" fill="white" fill-opacity="0.5"/>
<path d="M983.831 1.99976H981.798V321.499H983.831V1.99976Z" fill="white" fill-opacity="0.5"/>
<path d="M810.924 408.567C815.028 408.567 818.354 405.604 818.354 401.949C818.354 398.294 815.028 395.332 810.924 395.332C806.82 395.332 803.493 398.294 803.493 401.949C803.493 405.604 806.82 408.567 810.924 408.567Z" fill="white" fill-opacity="0.5"/>
<path d="M810.924 566.12C815.028 566.12 818.354 563.157 818.354 559.502C818.354 555.847 815.028 552.884 810.924 552.884C806.82 552.884 803.493 555.847 803.493 559.502C803.493 563.157 806.82 566.12 810.924 566.12Z" fill="white" fill-opacity="0.5"/>
<path d="M811.94 321.499H809.907V640.998H811.94V321.499Z" fill="white" fill-opacity="0.5"/>
<path d="M1076.56 402.662V400.851L717.82 400.851V402.662L1076.56 402.662Z" fill="white" fill-opacity="0.5"/>
<path d="M1076.56 560.407V558.596L717.82 558.596V560.407L1076.56 560.407Z" fill="white" fill-opacity="0.5"/>
<path d="M982.815 408.567C986.919 408.567 990.245 405.604 990.245 401.949C990.245 398.294 986.919 395.332 982.815 395.332C978.711 395.332 975.384 398.294 975.384 401.949C975.384 405.604 978.711 408.567 982.815 408.567Z" fill="white" fill-opacity="0.5"/>
<path d="M982.815 566.12C986.919 566.12 990.245 563.157 990.245 559.502C990.245 555.847 986.919 552.884 982.815 552.884C978.711 552.884 975.384 555.847 975.384 559.502C975.384 563.157 978.711 566.12 982.815 566.12Z" fill="white" fill-opacity="0.5"/>
<path d="M983.831 321.499H981.798V640.998H983.831V321.499Z" fill="white" fill-opacity="0.5"/>
<path d="M810.924 728.067C815.028 728.067 818.354 725.104 818.354 721.449C818.354 717.794 815.028 714.831 810.924 714.831C806.82 714.831 803.493 717.794 803.493 721.449C803.493 725.104 806.82 728.067 810.924 728.067Z" fill="white" fill-opacity="0.5"/>
<path d="M810.924 885.62C815.028 885.62 818.354 882.657 818.354 879.002C818.354 875.347 815.028 872.384 810.924 872.384C806.82 872.384 803.493 875.347 803.493 879.002C803.493 882.657 806.82 885.62 810.924 885.62Z" fill="white" fill-opacity="0.5"/>
<path d="M811.94 640.999H809.907V960.498H811.94V640.999Z" fill="white" fill-opacity="0.5"/>
<path d="M1076.56 722.162V720.351L717.82 720.351V722.162L1076.56 722.162Z" fill="white" fill-opacity="0.5"/>
<path d="M1076.56 879.907V878.096L717.82 878.096V879.907L1076.56 879.907Z" fill="white" fill-opacity="0.5"/>
<path d="M982.815 728.067C986.919 728.067 990.245 725.104 990.245 721.449C990.245 717.794 986.919 714.831 982.815 714.831C978.711 714.831 975.384 717.794 975.384 721.449C975.384 725.104 978.711 728.067 982.815 728.067Z" fill="white" fill-opacity="0.5"/>
<path d="M982.815 885.62C986.919 885.62 990.245 882.657 990.245 879.002C990.245 875.347 986.919 872.384 982.815 872.384C978.711 872.384 975.384 875.347 975.384 879.002C975.384 882.657 978.711 885.62 982.815 885.62Z" fill="white" fill-opacity="0.5"/>
<path d="M983.831 640.999H981.798V960.498H983.831V640.999Z" fill="white" fill-opacity="0.5"/>
<path d="M810.924 1047.57C815.028 1047.57 818.354 1044.6 818.354 1040.95C818.354 1037.29 815.028 1034.33 810.924 1034.33C806.82 1034.33 803.493 1037.29 803.493 1040.95C803.493 1044.6 806.82 1047.57 810.924 1047.57Z" fill="white" fill-opacity="0.5"/>
<path d="M810.924 1205.12C815.028 1205.12 818.354 1202.16 818.354 1198.5C818.354 1194.85 815.028 1191.88 810.924 1191.88C806.82 1191.88 803.493 1194.85 803.493 1198.5C803.493 1202.16 806.82 1205.12 810.924 1205.12Z" fill="white" fill-opacity="0.5"/>
<path d="M811.94 960.499H809.907V1280H811.94V960.499Z" fill="white" fill-opacity="0.5"/>
<path d="M1076.56 1041.66V1039.85H717.82V1041.66H1076.56Z" fill="white" fill-opacity="0.5"/>
<path d="M1076.56 1199.41V1197.6H717.82V1199.41H1076.56Z" fill="white" fill-opacity="0.5"/>
<path d="M982.815 1047.57C986.919 1047.57 990.245 1044.6 990.245 1040.95C990.245 1037.29 986.919 1034.33 982.815 1034.33C978.711 1034.33 975.384 1037.29 975.384 1040.95C975.384 1044.6 978.711 1047.57 982.815 1047.57Z" fill="white" fill-opacity="0.5"/>
<path d="M982.815 1205.12C986.919 1205.12 990.245 1202.16 990.245 1198.5C990.245 1194.85 986.919 1191.88 982.815 1191.88C978.711 1191.88 975.384 1194.85 975.384 1198.5C975.384 1202.16 978.711 1205.12 982.815 1205.12Z" fill="white" fill-opacity="0.5"/>
<path d="M983.831 960.499H981.798V1280H983.831V960.499Z" fill="white" fill-opacity="0.5"/>
<path d="M1169.66 89.0682C1173.77 89.0682 1177.09 86.1053 1177.09 82.4504C1177.09 78.7954 1173.77 75.8325 1169.66 75.8325C1165.56 75.8325 1162.23 78.7954 1162.23 82.4504C1162.23 86.1053 1165.56 89.0682 1169.66 89.0682Z" fill="white" fill-opacity="0.5"/>
<path d="M1169.66 246.62C1173.77 246.62 1177.09 243.658 1177.09 240.003C1177.09 236.348 1173.77 233.385 1169.66 233.385C1165.56 233.385 1162.23 236.348 1162.23 240.003C1162.23 243.658 1165.56 246.62 1169.66 246.62Z" fill="white" fill-opacity="0.5"/>
<path d="M1170.68 1.99976H1168.65V321.499H1170.68V1.99976Z" fill="white" fill-opacity="0.5"/>
<path d="M1435.3 83.1625V81.3518L1076.56 81.3518V83.1625L1435.3 83.1625Z" fill="white" fill-opacity="0.5"/>
<path d="M1435.3 240.908V239.097L1076.56 239.097V240.908L1435.3 240.908Z" fill="white" fill-opacity="0.5"/>
<path d="M1341.55 89.0682C1345.66 89.0682 1348.98 86.1053 1348.98 82.4504C1348.98 78.7954 1345.66 75.8325 1341.55 75.8325C1337.45 75.8325 1334.12 78.7954 1334.12 82.4504C1334.12 86.1053 1337.45 89.0682 1341.55 89.0682Z" fill="white" fill-opacity="0.5"/>
<path d="M1341.55 246.62C1345.66 246.62 1348.98 243.658 1348.98 240.003C1348.98 236.348 1345.66 233.385 1341.55 233.385C1337.45 233.385 1334.12 236.348 1334.12 240.003C1334.12 243.658 1337.45 246.62 1341.55 246.62Z" fill="white" fill-opacity="0.5"/>
<path d="M1342.57 1.99976H1340.54V321.499H1342.57V1.99976Z" fill="white" fill-opacity="0.5"/>
<path d="M1169.66 408.567C1173.77 408.567 1177.09 405.604 1177.09 401.949C1177.09 398.294 1173.77 395.332 1169.66 395.332C1165.56 395.332 1162.23 398.294 1162.23 401.949C1162.23 405.604 1165.56 408.567 1169.66 408.567Z" fill="white" fill-opacity="0.5"/>
<path d="M1169.66 566.12C1173.77 566.12 1177.09 563.157 1177.09 559.502C1177.09 555.847 1173.77 552.884 1169.66 552.884C1165.56 552.884 1162.23 555.847 1162.23 559.502C1162.23 563.157 1165.56 566.12 1169.66 566.12Z" fill="white" fill-opacity="0.5"/>
<path d="M1170.68 321.499H1168.65V640.998H1170.68V321.499Z" fill="white" fill-opacity="0.5"/>
<path d="M1435.3 402.662V400.851L1076.56 400.851V402.662L1435.3 402.662Z" fill="white" fill-opacity="0.5"/>
<path d="M1435.3 560.407V558.596L1076.56 558.596V560.407L1435.3 560.407Z" fill="white" fill-opacity="0.5"/>
<path d="M1341.55 408.567C1345.66 408.567 1348.98 405.604 1348.98 401.949C1348.98 398.294 1345.66 395.332 1341.55 395.332C1337.45 395.332 1334.12 398.294 1334.12 401.949C1334.12 405.604 1337.45 408.567 1341.55 408.567Z" fill="white" fill-opacity="0.5"/>
<path d="M1341.55 566.12C1345.66 566.12 1348.98 563.157 1348.98 559.502C1348.98 555.847 1345.66 552.884 1341.55 552.884C1337.45 552.884 1334.12 555.847 1334.12 559.502C1334.12 563.157 1337.45 566.12 1341.55 566.12Z" fill="white" fill-opacity="0.5"/>
<path d="M1342.57 321.499H1340.54V640.998H1342.57V321.499Z" fill="white" fill-opacity="0.5"/>
<path d="M1169.66 728.067C1173.77 728.067 1177.09 725.104 1177.09 721.449C1177.09 717.794 1173.77 714.831 1169.66 714.831C1165.56 714.831 1162.23 717.794 1162.23 721.449C1162.23 725.104 1165.56 728.067 1169.66 728.067Z" fill="white" fill-opacity="0.5"/>
<path d="M1169.66 885.62C1173.77 885.62 1177.09 882.657 1177.09 879.002C1177.09 875.347 1173.77 872.384 1169.66 872.384C1165.56 872.384 1162.23 875.347 1162.23 879.002C1162.23 882.657 1165.56 885.62 1169.66 885.62Z" fill="white" fill-opacity="0.5"/>
<path d="M1170.68 640.999H1168.65V960.498H1170.68V640.999Z" fill="white" fill-opacity="0.5"/>
<path d="M1435.3 722.162V720.351L1076.56 720.351V722.162L1435.3 722.162Z" fill="white" fill-opacity="0.5"/>
<path d="M1435.3 879.907V878.096L1076.56 878.096V879.907L1435.3 879.907Z" fill="white" fill-opacity="0.5"/>
<path d="M1341.55 728.067C1345.66 728.067 1348.98 725.104 1348.98 721.449C1348.98 717.794 1345.66 714.831 1341.55 714.831C1337.45 714.831 1334.12 717.794 1334.12 721.449C1334.12 725.104 1337.45 728.067 1341.55 728.067Z" fill="white" fill-opacity="0.5"/>
<path d="M1341.55 885.62C1345.66 885.62 1348.98 882.657 1348.98 879.002C1348.98 875.347 1345.66 872.384 1341.55 872.384C1337.45 872.384 1334.12 875.347 1334.12 879.002C1334.12 882.657 1337.45 885.62 1341.55 885.62Z" fill="white" fill-opacity="0.5"/>
<path d="M1342.57 640.999H1340.54V960.498H1342.57V640.999Z" fill="white" fill-opacity="0.5"/>
<path d="M1168.95 1047.48C1173.09 1047.48 1176.45 1044.52 1176.45 1040.86C1176.45 1037.21 1173.09 1034.25 1168.95 1034.25C1164.81 1034.25 1161.45 1037.21 1161.45 1040.86C1161.45 1044.52 1164.81 1047.48 1168.95 1047.48Z" fill="white" fill-opacity="0.5"/>
<path d="M1168.95 1204.92C1173.09 1204.92 1176.45 1201.96 1176.45 1198.31C1176.45 1194.66 1173.09 1191.7 1168.95 1191.7C1164.81 1191.7 1161.45 1194.66 1161.45 1198.31C1161.45 1201.96 1164.81 1204.92 1168.95 1204.92Z" fill="white" fill-opacity="0.5"/>
<path d="M1169.97 960.466H1167.92V1279.75H1169.97V960.466Z" fill="white" fill-opacity="0.5"/>
<path d="M1436.96 1041.57V1039.77H1075.01V1041.57H1436.96Z" fill="white" fill-opacity="0.5"/>
<path d="M1436.96 1199.22V1197.41H1075.01V1199.22H1436.96Z" fill="white" fill-opacity="0.5"/>
<path d="M1342.38 1047.48C1346.52 1047.48 1349.88 1044.52 1349.88 1040.86C1349.88 1037.21 1346.52 1034.25 1342.38 1034.25C1338.24 1034.25 1334.88 1037.21 1334.88 1040.86C1334.88 1044.52 1338.24 1047.48 1342.38 1047.48Z" fill="white" fill-opacity="0.5"/>
<path d="M1342.38 1204.92C1346.52 1204.92 1349.88 1201.96 1349.88 1198.31C1349.88 1194.66 1346.52 1191.7 1342.38 1191.7C1338.24 1191.7 1334.88 1194.66 1334.88 1198.31C1334.88 1201.96 1338.24 1204.92 1342.38 1204.92Z" fill="white" fill-opacity="0.5"/>
<path d="M1343.41 960.466H1341.35V1279.75H1343.41V960.466Z" fill="white" fill-opacity="0.5"/>
</g>
<defs>
<clipPath id="clip0_21_4941">
<rect width="1437" height="1278" fill="white"/>
</clipPath>
</defs>
</svg>
