<svg width="197" height="197" viewBox="0 0 197 197" fill="none" xmlns="http://www.w3.org/2000/svg">
<g clip-path="url(#clip0_121_145)">
<path d="M101.059 197.001C154.046 197.001 197 154.046 197 101.059C197 48.0719 154.046 5.1174 101.059 5.1174C48.0717 5.1174 5.11719 48.0719 5.11719 101.059C5.11719 154.046 48.0717 197.001 101.059 197.001Z" fill="#00A4B9"/>
<path d="M95.9416 190.383C148.1 190.383 190.383 148.1 190.383 95.9416C190.383 43.7829 148.1 1.5 95.9416 1.5C43.7829 1.5 1.5 43.7829 1.5 95.9416C1.5 148.1 43.7829 190.383 95.9416 190.383Z" stroke="white" stroke-width="3"/>
<path d="M63.2252 145V138.625C78.3002 125.125 87.2252 114.7 87.2252 106.15C87.2252 100.525 84.2252 97.15 78.9002 97.15C74.8502 97.15 71.5502 99.775 68.7002 102.85L62.7002 96.85C67.8002 91.375 72.7502 88.45 80.3252 88.45C90.8252 88.45 97.8002 95.2 97.8002 105.55C97.8002 115.6 89.4752 126.4 79.3502 136.3C82.1252 136 85.8002 135.7 88.4252 135.7H100.425V145H63.2252Z" fill="white"/>
<mask id="mask0_121_145" style="mask-type:luminance" maskUnits="userSpaceOnUse" x="58" y="85" width="46" height="63">
<path d="M104 85H58V148H104V85Z" fill="white"/>
<path d="M63.2252 145V138.625C78.3002 125.125 87.2252 114.7 87.2252 106.15C87.2252 100.525 84.2252 97.15 78.9002 97.15C74.8502 97.15 71.5502 99.775 68.7002 102.85L62.7002 96.85C67.8002 91.375 72.7502 88.45 80.3252 88.45C90.8252 88.45 97.8002 95.2 97.8002 105.55C97.8002 115.6 89.4752 126.4 79.3502 136.3C82.1252 136 85.8002 135.7 88.4252 135.7H100.425V145H63.2252Z" fill="white"/>
</mask>
<g mask="url(#mask0_121_145)">
<path d="M63.2249 145H60.2249V148H63.2249V145ZM63.2249 138.625L61.2235 136.39L60.2249 137.284V138.625H63.2249ZM68.6999 102.85L66.5786 104.971L68.782 107.175L70.9002 104.889L68.6999 102.85ZM62.7 96.85L60.5047 94.8052L58.5312 96.9239L60.5787 98.9713L62.7 96.85ZM79.3499 136.3L77.2526 134.155L71.0558 140.214L79.6724 139.283L79.3499 136.3ZM100.425 135.7H103.425V132.7H100.425V135.7ZM100.425 145V148H103.425V145H100.425ZM66.2249 145V138.625H60.2249V145H66.2249ZM65.2264 140.86C72.802 134.076 78.9692 127.946 83.258 122.358C87.4998 116.831 90.2249 111.428 90.2249 106.15H84.2249C84.2249 109.422 82.4876 113.507 78.4981 118.705C74.5557 123.842 68.7229 129.674 61.2235 136.39L65.2264 140.86ZM90.2249 106.15C90.2249 102.829 89.3363 99.7705 87.2724 97.5153C85.1736 95.2219 82.2177 94.15 78.9 94.15V100.15C80.9074 100.15 82.1137 100.766 82.8461 101.566C83.6136 102.405 84.2249 103.846 84.2249 106.15H90.2249ZM78.9 94.15C73.5009 94.15 69.4334 97.6454 66.4997 100.811L70.9002 104.889C73.6665 101.905 76.1991 100.15 78.9 100.15V94.15ZM70.8212 100.729L64.8212 94.7287L60.5787 98.9713L66.5786 104.971L70.8212 100.729ZM64.8952 98.8948C67.3048 96.308 69.5382 94.478 71.9296 93.2784C74.2892 92.0946 76.9517 91.45 80.3249 91.45V85.45C76.1231 85.45 72.5232 86.2679 69.2391 87.9154C65.9867 89.547 63.1951 91.917 60.5047 94.8052L64.8952 98.8948ZM80.3249 91.45C84.9243 91.45 88.4971 92.9174 90.9051 95.2663C93.3055 97.6077 94.8 101.069 94.8 105.55H100.8C100.8 99.6808 98.8069 94.5923 95.0948 90.9712C91.3903 87.3576 86.2255 85.45 80.3249 85.45V91.45ZM94.8 105.55C94.8 109.765 93.0412 114.404 89.85 119.356C86.6749 124.283 82.2382 129.28 77.2526 134.155L81.4474 138.445C86.5868 133.42 91.375 128.067 94.8936 122.606C98.3962 117.171 100.8 111.385 100.8 105.55H94.8ZM79.6724 139.283C82.4168 138.986 85.964 138.7 88.425 138.7V132.7C85.636 132.7 81.8332 133.014 79.0276 133.317L79.6724 139.283ZM88.425 138.7H100.425V132.7H88.425V138.7ZM97.425 135.7V145H103.425V135.7H97.425ZM100.425 142H63.2249V148H100.425V142Z" fill="white"/>
</g>
<path d="M124.17 119.68L127.56 120.76C126.78 122.83 125.79 124.93 124.68 126.94V147.55H121.29V132.22C120.63 133.09 119.94 133.9 119.25 134.62C118.92 133.75 117.96 131.77 117.36 130.93C120.06 128.23 122.64 123.97 124.17 119.68ZM140.67 139.03H132.06V143.05H140.67V139.03ZM128.58 147.61V135.79H144.3V147.46H140.67V146.35H132.06V147.61H128.58ZM139.44 125.77H132.75C133.38 127.12 133.89 128.8 134.07 129.91L132.48 130.33H139.65L138.06 130.03C138.54 128.83 139.14 127.09 139.44 125.77ZM141.36 130.33H146.13V133.6H126.12V130.33H130.71C130.53 129.13 130.08 127.51 129.51 126.22L131.46 125.77H127.23V122.59H134.37V119.62H138.03V122.59H145.53V125.77H140.67L143.04 126.19C142.44 127.75 141.87 129.25 141.36 130.33Z" fill="white"/>
<path d="M57.8601 44.78H54.3001C54.7001 45.62 55.0201 46.68 55.1001 47.4L53.9401 47.7H58.3401L56.9601 47.4C57.2801 46.66 57.6601 45.58 57.8601 44.78ZM60.0801 55.4L59.0001 56.78C58.6001 56.3 57.8001 55.5 57.0601 54.8V59.54H55.2601V54.86C54.3601 56.2 53.3001 57.42 52.2801 58.22C52.0001 57.8 51.4601 57.2 51.0801 56.88C52.4401 55.98 53.9401 54.32 54.9001 52.68H51.5601V51.1H55.2601V49.28H51.5001V47.7H53.5601C53.5001 46.98 53.2001 45.92 52.8601 45.12L54.2201 44.78H51.7601V43.24H55.2601V41.34H57.0601V43.24H60.5601V44.78H58.1401L59.5401 45.1C59.1601 46.04 58.7801 47.02 58.4401 47.7H60.7801V49.28H57.0601V51.1H60.6001V52.68H57.0601V53.02C57.7801 53.52 59.6201 55.02 60.0801 55.4ZM69.6801 47.84V49.56H67.5801V59.46H65.7801V49.56H63.2001V49.74C63.2001 52.7 62.8401 56.86 60.0801 59.64C59.8601 59.24 59.1801 58.6 58.7601 58.36C61.1801 55.9 61.4201 52.48 61.4201 49.72V42.8L62.6601 43.16C64.6201 42.7 66.7401 42.08 67.9801 41.44L69.4801 42.78C67.7601 43.56 65.3601 44.18 63.2001 44.6V47.84H69.6801ZM79.4601 55.24L78.1801 56.6C77.7201 55.84 76.7001 54.52 75.8401 53.46C75.3801 55.66 74.4201 57.78 72.5201 59.32C72.2601 58.94 71.6801 58.32 71.2401 58C73.6401 56.22 74.3001 53.32 74.4801 50.68H71.4401V48.98H74.5401V48.4V46.06H71.8201V44.4H74.5401V41.42H76.2801V44.4H78.9601V46.06H76.2801V48.4V48.98H79.3001V50.68H76.2201C76.2001 50.96 76.1601 51.26 76.1401 51.54C76.9601 52.34 78.9801 54.64 79.4601 55.24ZM81.7201 49.86V51.48H86.8201V49.86H81.7201ZM81.7201 46.72V48.36H86.8201V46.72H81.7201ZM81.7201 43.64V45.22H86.8201V43.64H81.7201ZM86.7801 57.58H87.8001C88.1601 57.58 88.2401 57.3 88.3001 55.06C88.6401 55.38 89.3801 55.64 89.8201 55.76C89.6801 58.52 89.2401 59.22 87.9601 59.22H86.4801C84.9401 59.22 84.6201 58.68 84.6201 57.04V53.16H83.1801C82.8201 56.12 81.8601 58.32 78.4401 59.56C78.2401 59.16 77.7801 58.48 77.4001 58.18C80.3801 57.2 81.1201 55.48 81.4201 53.16H79.9801V41.96H88.6001V53.16H86.3401V57.02C86.3401 57.52 86.4001 57.58 86.7801 57.58ZM99.5001 49.44H94.7201V51.08H99.5001V49.44ZM106.3 49.44H101.34V51.08H106.3V49.44ZM95.3801 45.56H99.5001V44.02H95.3801V45.56ZM105.64 44.02H101.34V45.56H105.64V44.02ZM94.7201 52.46V53.04H93.0001V48.04H99.5001V46.92H93.6601V42.66H99.5001V41.22H101.34V42.66H107.48V46.92H101.34V48.04H108.1V53H106.3V52.46H101.34V53.64H100.64C101.36 54.14 102 54.7 102.4 55.16L101.1 56.26C100.48 55.46 99.1201 54.4 97.9401 53.7L99.1601 52.7L99.5001 52.9V52.46H94.7201ZM92.8201 59.04L91.2801 57.96C92.6601 57.08 93.5601 55.58 94.0001 54.04L95.6401 54.62C95.1201 56.34 94.3201 58 92.8201 59.04ZM99.5601 57.68H102.7C103.5 57.68 103.64 57.44 103.72 55.74C104.1 56.02 104.88 56.3 105.38 56.4C105.16 58.76 104.62 59.34 102.88 59.34H99.3601C97.1201 59.34 96.5801 58.84 96.5801 57.1V54.2H98.4001V57.08C98.4001 57.6 98.5801 57.68 99.5601 57.68ZM104.54 54.78L106.04 53.92C107.48 55.08 109 56.74 109.66 58.04L108 58.98C107.44 57.74 105.96 56 104.54 54.78ZM120.1 47.42H121.4C122.34 46.72 123.2 45.96 124.02 45.18H120.1V47.42ZM125.06 54.16V52.5H117.52V54.16H125.06ZM117.52 57.38H125.06V55.62H117.52V57.38ZM129.36 49.08H122.02C121.12 49.76 120.18 50.36 119.22 50.96H126.98V59.5H125.06V58.96H117.52V59.58H115.68V52.86C114.56 53.38 113.42 53.86 112.28 54.3C112.06 53.88 111.48 53.14 111.14 52.76C113.9 51.84 116.56 50.6 118.96 49.08H111.64V47.42H118.26V45.18H113.38V43.56H118.26V41.22H120.1V43.56H124.76V44.44C125.56 43.62 126.3 42.76 126.94 41.86L128.54 42.7C127.28 44.42 125.78 45.98 124.12 47.42H129.36V49.08ZM139.14 41.54L140.74 42.2C140.1 43.1 139.46 44.06 138.96 44.68L137.72 44.12C138.2 43.42 138.82 42.32 139.14 41.54ZM146.58 46.58H143.6C143.96 48.62 144.44 50.54 145.14 52.22C145.82 50.62 146.28 48.74 146.58 46.58ZM137.72 53.2H135.32C135.06 53.66 134.82 54.14 134.58 54.58C135.28 54.86 136 55.16 136.68 55.5C137.16 54.88 137.48 54.12 137.72 53.2ZM149.68 46.58H148.5C148.04 49.68 147.34 52.24 146.18 54.32C147.12 55.9 148.34 57.16 149.88 57.96C149.46 58.32 148.86 59.04 148.58 59.56C147.14 58.7 145.98 57.52 145.04 56.06C143.9 57.52 142.44 58.7 140.6 59.64C140.46 59.34 140.18 58.86 139.9 58.46L139.24 59.14C138.68 58.64 137.9 58.12 137.02 57.6C135.86 58.52 134.28 59.14 132.16 59.58C132.04 59.08 131.7 58.4 131.36 58.04C133.1 57.78 134.42 57.36 135.4 56.7C134.88 56.44 134.36 56.18 133.82 55.94L133.56 56.4L131.94 55.9C132.38 55.16 132.9 54.2 133.44 53.2H131.3V51.66H134.2C134.48 51.12 134.72 50.58 134.94 50.08L135.42 50.18V47.86C134.46 48.9 133.28 49.84 132.16 50.48C131.94 50.06 131.52 49.44 131.18 49.08C132.52 48.54 133.96 47.42 134.92 46.22H131.46V44.72H133.26C133.1 44.02 132.6 42.98 132.12 42.2L133.46 41.64C134.02 42.4 134.54 43.44 134.74 44.14L133.42 44.72H135.42V41.2H137.14V44.72H141.06V46.22H137.24C138.14 46.72 140.08 47.92 140.58 48.28L139.58 49.58C139.1 49.12 138.04 48.28 137.14 47.6V50.34H136.14L136.68 50.46C136.5 50.84 136.3 51.24 136.1 51.66H141.14V53.2H139.5C139.24 54.44 138.84 55.48 138.24 56.32C139 56.74 139.7 57.18 140.26 57.58C141.86 56.72 143.08 55.6 144.04 54.22C143.36 52.8 142.86 51.18 142.44 49.42C142.06 50.16 141.66 50.86 141.2 51.46C140.92 51.12 140.14 50.46 139.72 50.16C141.38 48.08 142.4 44.72 142.92 41.2L144.8 41.48C144.6 42.62 144.38 43.74 144.1 44.82H149.68V46.58Z" fill="white"/>
</g>
<defs>
<clipPath id="clip0_121_145">
<rect width="197" height="197" fill="white"/>
</clipPath>
</defs>
</svg>
