<svg width="197" height="197" viewBox="0 0 197 197" fill="none" xmlns="http://www.w3.org/2000/svg">
<g clip-path="url(#clip0_121_156)">
<path d="M101.059 197.001C154.046 197.001 197 154.046 197 101.059C197 48.0719 154.046 5.1174 101.059 5.1174C48.0717 5.1174 5.11719 48.0719 5.11719 101.059C5.11719 154.046 48.0717 197.001 101.059 197.001Z" fill="#00A4B9"/>
<path d="M95.9416 190.383C148.1 190.383 190.383 148.1 190.383 95.9416C190.383 43.7829 148.1 1.5 95.9416 1.5C43.7829 1.5 1.5 43.7829 1.5 95.9416C1.5 148.1 43.7829 190.383 95.9416 190.383Z" stroke="white" stroke-width="3"/>
<path d="M56.5204 59.9V61.68H41.2204V62.56H39.3604V45.24H56.0604V47.02H41.2204V59.9H56.5204ZM55.6604 54.12H50.0004C51.0404 56.02 53.0604 57.22 55.8604 57.68C55.4804 58.06 54.9803 58.74 54.7603 59.24C52.1403 58.66 50.2804 57.48 49.0404 55.66C48.2204 57.04 46.5404 58.34 43.3204 59.3C43.0804 58.9 42.5604 58.26 42.1604 57.92C45.9604 56.92 47.3004 55.52 47.7204 54.12H42.2803V52.52H47.9203V50.52H45.1003C44.6603 51.08 44.1804 51.6 43.7004 52.02C43.3404 51.74 42.5804 51.3 42.1404 51.08C43.4004 50.14 44.4804 48.66 45.0604 47.16L46.8204 47.6C46.6404 48.06 46.4204 48.5 46.1804 48.92H54.7603V50.52H49.7603V52.52H55.6604V54.12ZM74.7003 50V48.06H66.7003V50H74.7003ZM65.0404 46.46H69.6404V44.28H71.4404V46.46H76.4203V50.2H74.8403V51.62H66.5603V50.2H65.0404V46.46ZM63.8204 45L65.0404 45.7C64.4804 47.38 63.7804 49.46 63.1404 51.02C64.5004 52.6 64.8004 53.98 64.8004 55.18C64.8004 56.32 64.5604 57.16 63.9804 57.56C63.6804 57.76 63.3004 57.9 62.9004 57.96C62.5204 58 62.0404 58 61.5804 57.98C61.5604 57.52 61.4204 56.82 61.1404 56.38C61.5604 56.42 61.9004 56.42 62.1604 56.4C62.4004 56.4 62.6003 56.34 62.7803 56.22C63.0603 56.02 63.1404 55.54 63.1404 54.96C63.1404 53.96 62.8204 52.66 61.5204 51.22C62.0204 49.88 62.5403 48.1 62.9203 46.74H60.7803V62.58H59.1404V45.06H63.5404L63.8204 45ZM73.5804 60.68H74.6404C75.0004 60.68 75.0804 60.36 75.1204 58.28C75.4804 58.58 76.2203 58.86 76.7003 58.98C76.5403 61.64 76.0803 62.34 74.8403 62.34H73.2803C71.7603 62.34 71.4004 61.8 71.4004 60.1V55.22H69.4804C69.2004 58.92 68.3804 61.28 64.6204 62.58C64.4604 62.14 63.9803 61.44 63.6003 61.14C66.8203 60.1 67.5003 58.24 67.7003 55.22H65.2604V53.52H76.4203V55.22H73.1604V60.08C73.1604 60.62 73.2204 60.68 73.5804 60.68ZM86.4604 49.42V47.72H78.8403V46H86.4604V44.24H88.3803V46H96.2003V47.72H88.3803V49.42H94.4004V51.06H80.7003V49.42H86.4604ZM95.7803 56.38H93.9004V54.06H81.0603V56.38H79.2403V52.4H95.7803V56.38ZM83.9203 54.9H85.8403C85.5203 58.94 84.5603 61.36 79.3803 62.62C79.2203 62.14 78.7404 61.38 78.3604 61.02C83.0004 60.06 83.6603 58.2 83.9203 54.9ZM91.5603 60.56H93.9004C94.6004 60.56 94.7404 60.26 94.8004 58.1C95.1804 58.4 95.9604 58.68 96.4804 58.8C96.2804 61.56 95.7804 62.26 94.0804 62.26H91.3204C89.3004 62.26 88.8004 61.72 88.8004 59.92V54.9H90.6604V59.9C90.6604 60.48 90.8003 60.56 91.5603 60.56ZM107.86 59.74H116.46V61.62H98.5603V59.74H105.86V44.5H107.86V50.44H115.08V52.3H107.86V59.74ZM120.92 49.7H126.48V48.28H128.36V49.7H133.98V47.72H120.92V49.7ZM136.26 57.52H129.32C130.72 59.42 133.14 60.56 136.5 61C136.1 61.36 135.64 62.12 135.38 62.62C131.48 61.96 128.94 60.4 127.4 57.64C126.32 59.56 124.12 61.3 119.72 62.56C119.52 62.18 118.98 61.46 118.58 61.08C122.26 60.14 124.24 58.88 125.3 57.52H118.86V55.9H126.16C126.32 55.36 126.42 54.84 126.46 54.3H121.12V52.76H126.48V51.24H120.8V50.08H119.1V46.08H126.52V44.24H128.44V46.08H135.88V50.08H134.34V51.24H128.36V52.76H134.02V54.3H128.34C128.3 54.84 128.22 55.38 128.1 55.9H136.26V57.52ZM156.62 49.34V50.56H145.26V49.34H149.96V48.46H146.28V47.3H149.96V46.44H145.8V45.24H149.96V44.22H151.82V45.24H156.18V46.44H151.82V47.3H155.68V48.46H151.82V49.34H156.62ZM139.16 55.66L140.7 55.92C140.44 57.8 140.02 59.74 139.4 61C139.1 60.8 138.4 60.48 138.04 60.34C138.62 59.14 138.98 57.36 139.16 55.66ZM144.3 54.16L142.92 54.26V62.56H141.28V54.38C140.18 54.44 139.14 54.52 138.24 54.56L138.14 52.94L139.54 52.86C139.88 52.42 140.26 51.92 140.62 51.4C140.04 50.5 139.08 49.42 138.24 48.58L139.18 47.34C139.36 47.5 139.54 47.68 139.72 47.86C140.34 46.74 140.98 45.3 141.34 44.22L142.98 44.82C142.28 46.18 141.42 47.78 140.7 48.88C141.04 49.26 141.34 49.62 141.58 49.96C142.34 48.78 143.06 47.54 143.56 46.52L145.1 47.22C143.98 49 142.54 51.12 141.24 52.78C142.02 52.72 142.86 52.68 143.7 52.64C143.46 52.1 143.2 51.58 142.94 51.1L144.26 50.56C145.04 51.86 145.84 53.56 146.08 54.68L144.64 55.32C144.56 54.98 144.46 54.58 144.3 54.16ZM145.78 59.1L144.36 59.54C144.26 58.56 143.88 57.08 143.4 55.94L144.74 55.54C145.22 56.66 145.66 58.14 145.78 59.1ZM153.82 53.7V52.62H148.24V53.7H153.82ZM153.82 55.94V54.84H148.24V55.94H153.82ZM153.82 58.18V57.08H148.24V58.18H153.82ZM155.56 51.42V59.38H148.9L150.28 60.26C149.08 61.2 147.12 62.16 145.52 62.66C145.24 62.3 144.72 61.78 144.34 61.46C145.9 61.02 147.72 60.16 148.68 59.38H146.56V51.42H155.56ZM151.82 60.28L153.06 59.38C154.38 60.14 155.92 61.08 156.84 61.7L155.22 62.6C154.44 62 153.04 61.04 151.82 60.28Z" fill="white"/>
<path d="M75.8748 145C77.0748 124.15 81.7998 112.75 92.8998 98.5H64.1748V89.275H104.9V96.1C91.3248 112.675 87.5748 124.675 87.4248 145H75.8748Z" fill="white"/>
<mask id="mask0_121_156" style="mask-type:luminance" maskUnits="userSpaceOnUse" x="61" y="86" width="47" height="62">
<path d="M108 86H61V148H108V86Z" fill="white"/>
<path d="M75.8748 145C77.0748 124.15 81.7998 112.75 92.8998 98.5H64.1748V89.275H104.9V96.1C91.3248 112.675 87.5748 124.675 87.4248 145H75.8748Z" fill="white"/>
</mask>
<g mask="url(#mask0_121_156)">
<path d="M75.8748 145L72.8798 144.828L72.6972 148H75.8748V145ZM92.8998 98.5L95.2665 100.344L99.0394 95.5H92.8998V98.5ZM64.1748 98.5H61.1748V101.5H64.1748V98.5ZM64.1748 89.275V86.275H61.1748V89.275H64.1748ZM104.9 89.275H107.9V86.275H104.9V89.275ZM104.9 96.1L107.221 98.0009L107.9 97.1717V96.1H104.9ZM87.4248 145V148H90.4027L90.4247 145.022L87.4248 145ZM78.8698 145.172C79.4587 134.942 80.903 127.199 83.4832 120.33C86.0612 113.467 89.8317 107.321 95.2665 100.344L90.5331 96.6565C84.8679 103.929 80.7259 110.608 77.8664 118.22C75.0091 125.826 73.491 134.208 72.8798 144.828L78.8698 145.172ZM92.8998 95.5H64.1748V101.5H92.8998V95.5ZM67.1748 98.5V89.275H61.1748V98.5H67.1748ZM64.1748 92.275H104.9V86.275H64.1748V92.275ZM101.9 89.275V96.1H107.9V89.275H101.9ZM102.579 94.1991C95.6504 102.659 91.1 110.108 88.295 118.156C85.4926 126.197 84.5012 134.641 84.4249 144.978L90.4247 145.022C90.4984 135.034 91.457 127.315 93.9608 120.131C96.4621 112.954 100.574 106.116 107.221 98.0009L102.579 94.1991ZM87.4248 142H75.8748V148H87.4248V142Z" fill="white"/>
</g>
<path d="M113.035 137.865H115.12C115.27 137.52 115.42 137.13 115.525 136.77H112.555C112.75 137.13 112.93 137.535 113.035 137.865ZM109.72 135.48H113.14V134.385H114.925V135.48H118.6V136.77H117.4C117.19 137.16 116.98 137.535 116.785 137.865H119.035V139.245H109.12V137.865H111.37C111.265 137.535 111.115 137.16 110.95 136.86L111.43 136.77H109.72V135.48ZM116.245 141.51V140.895H111.925V141.51H116.245ZM116.245 143.085V142.455H111.925V143.085H116.245ZM118.015 139.83V144.15H114.67C115.06 144.465 115.42 144.795 115.645 145.08L114.49 145.995C114.16 145.515 113.395 144.825 112.75 144.39L113.065 144.15H110.23V139.83H118.015ZM108.25 134.325L109.885 134.865C109.48 135.885 108.955 136.95 108.37 137.94V148.29H106.69V140.415C106.345 140.85 105.985 141.255 105.625 141.615C105.475 141.18 105.01 140.22 104.695 139.77C106.09 138.48 107.455 136.41 108.25 134.325ZM109.795 147.975L108.49 147.06C109.12 146.475 109.66 145.545 109.93 144.705L111.31 145.26C110.98 146.19 110.5 147.27 109.795 147.975ZM113.665 146.895H114.985C115.345 146.895 115.42 146.775 115.48 145.905C115.765 146.145 116.44 146.355 116.875 146.46C116.71 147.9 116.275 148.275 115.165 148.275H113.425C111.865 148.275 111.52 147.84 111.52 146.505V144.78H113.14V146.49C113.14 146.85 113.2 146.895 113.665 146.895ZM115.975 145.275L117.31 144.555C118.06 145.305 118.885 146.37 119.23 147.135L117.805 147.93C117.505 147.195 116.71 146.085 115.975 145.275ZM127.84 140.79H131.59V137.01H127.84V140.79ZM122.53 137.01V140.79H126.07V137.01H122.53ZM133.39 135.24V146.205C133.39 147.18 133.18 147.675 132.55 147.96C131.95 148.26 131.05 148.29 129.715 148.29C129.625 147.795 129.325 146.97 129.07 146.505C129.925 146.565 130.9 146.55 131.2 146.55C131.485 146.535 131.59 146.445 131.59 146.19V142.56H122.53V148.29H120.73V135.24H133.39ZM138.34 139.545V143.085C138.82 142.905 139.315 142.725 139.795 142.545L140.155 144.18C138.565 144.825 136.855 145.53 135.49 146.07L134.875 144.255C135.385 144.105 136 143.895 136.69 143.655V139.545H135.205V137.85H136.69V134.49H138.34V137.85H139.72V139.545H138.34ZM146.275 143.805H142.405V144.495H146.275V143.805ZM142.405 146.445H146.275V145.755H142.405V146.445ZM140.755 148.305V142.395H148V148.29H146.275V147.855H142.405V148.305H140.755ZM146.875 138.495V137.73H145.09V138.495H146.875ZM146.875 140.475V139.71H145.09V140.475H146.875ZM141.7 139.71V140.475H143.455V139.71H141.7ZM143.455 137.73H141.7V138.495H143.455V137.73ZM146.845 136.41H148.555V141.795H140.11V136.41H141.58C141.37 135.915 141.04 135.3 140.725 134.82L142.24 134.295C142.705 134.895 143.17 135.72 143.365 136.275L142.99 136.41H145.495L145.165 136.305C145.525 135.735 145.93 134.865 146.155 134.235L147.985 134.685C147.595 135.315 147.205 135.915 146.845 136.41ZM162.415 135.24L163.63 135.585C163.225 139.095 162.325 141.9 160.99 144.075C161.845 145.2 162.895 146.115 164.185 146.73C163.765 147.075 163.18 147.795 162.91 148.29C161.68 147.615 160.66 146.745 159.82 145.68C158.905 146.73 157.855 147.6 156.655 148.275C156.385 147.825 155.89 147.105 155.47 146.76V148.29H153.73V144.54C152.53 144.885 151.315 145.2 150.295 145.47L149.89 143.64C150.205 143.58 150.55 143.505 150.925 143.43V136.035H152.59V143.04L153.73 142.77V134.385H155.47V146.715C156.7 146.1 157.795 145.17 158.71 144C157.69 142.17 156.985 139.965 156.475 137.475L158.185 137.175C158.545 139.035 159.085 140.76 159.85 142.26C160.645 140.76 161.245 139.02 161.59 137.055H155.995V135.3H162.115L162.415 135.24Z" fill="white"/>
<path d="M33.7996 143.4H36.3946V141.12H33.7996V143.4ZM43.3696 143.4V145.11H38.2396V148.32H36.3946V145.11H29.6446V143.4H32.0146V139.455H36.3946V137.67H33.1846C32.5696 138.735 31.8496 139.695 31.1446 140.4C30.7996 140.1 30.0346 139.5 29.5996 139.245C30.9496 138.105 32.1046 136.185 32.7496 134.25L34.5646 134.715C34.4296 135.135 34.2646 135.54 34.0696 135.945H42.5446V137.67H38.2396V139.455H42.1996V141.12H38.2396V143.4H43.3696ZM49.2946 136.155H46.9846V136.95H49.2946V136.155ZM46.9846 139.005H49.2946V138.15H46.9846V139.005ZM50.9596 140.28H46.9846V148.305H45.2146V134.865H50.9596V140.28ZM53.6896 139.035H56.0746V138.15H53.6896V139.035ZM56.0746 136.155H53.6896V136.95H56.0746V136.155ZM50.2246 145.605H52.6996V144.675H50.2246V145.605ZM52.6996 143.4V142.5H50.2246V143.4H52.6996ZM57.8746 134.865V146.19C57.8746 147.15 57.6796 147.675 57.0796 147.96C56.4946 148.26 55.6246 148.305 54.3346 148.305C54.2896 147.93 54.1246 147.375 53.9446 146.91H50.2246V147.675H48.6046V141.195H49.3396V141.18L54.3796 141.195V146.505C54.9646 146.52 55.5196 146.52 55.7146 146.505C55.9846 146.505 56.0746 146.415 56.0746 146.175V140.31H51.9946V134.865H57.8746Z" fill="white"/>
</g>
<defs>
<clipPath id="clip0_121_156">
<rect width="197" height="197" fill="white"/>
</clipPath>
</defs>
</svg>
