<svg width="197" height="197" viewBox="0 0 197 197" fill="none" xmlns="http://www.w3.org/2000/svg">
<g clip-path="url(#clip0_121_134)">
<path d="M101.059 197.001C154.046 197.001 197 154.046 197 101.059C197 48.0719 154.046 5.1174 101.059 5.1174C48.0717 5.1174 5.11719 48.0719 5.11719 101.059C5.11719 154.046 48.0717 197.001 101.059 197.001Z" fill="#00A4B9"/>
<path d="M95.9416 190.383C148.1 190.383 190.383 148.1 190.383 95.9416C190.383 43.7829 148.1 1.5 95.9416 1.5C43.7829 1.5 1.5 43.7829 1.5 95.9416C1.5 148.1 43.7829 190.383 95.9416 190.383Z" stroke="white" stroke-width="3"/>
<path d="M47.4399 44.9C47.3799 45.28 47.3199 45.96 47.2799 46.44C47.2599 46.92 47.2399 47.56 47.1999 48.28C48.5999 48.12 50.0399 47.84 51.1399 47.52L51.1799 49.48C50.0199 49.74 48.5399 49.98 47.1599 50.14C47.1399 50.94 47.1199 51.74 47.1199 52.46C47.1199 52.68 47.1199 52.92 47.1199 53.16C48.5799 52.74 50.0599 52.52 51.2799 52.52C54.2599 52.52 56.4999 54.12 56.4999 56.68C56.4999 59.06 55.1199 60.72 52.1799 61.42C51.2799 61.62 50.3799 61.68 49.6399 61.72L48.9199 59.68C49.7199 59.7 50.5799 59.7 51.3199 59.54C52.9999 59.22 54.4599 58.34 54.4599 56.66C54.4599 55.12 53.0799 54.26 51.2599 54.26C49.8599 54.26 48.4799 54.5 47.1599 54.92C47.1799 56.58 47.2399 58.26 47.2399 59.06C47.2399 61.18 46.4599 61.8 45.2799 61.8C43.5399 61.8 40.8799 60.2 40.8799 58.28C40.8799 56.58 42.9399 54.8 45.2999 53.78C45.2999 53.36 45.2999 52.94 45.2999 52.54C45.2999 51.84 45.2999 51.08 45.3199 50.32C44.8199 50.36 44.3799 50.38 43.9999 50.38C42.7799 50.38 42.0199 50.34 41.3599 50.28L41.2999 48.36C42.4399 48.5 43.2199 48.52 43.9599 48.52C44.3799 48.52 44.8399 48.5 45.3399 48.46C45.3399 47.56 45.3599 46.84 45.3599 46.48C45.3599 46.06 45.2999 45.26 45.2399 44.9H47.4399ZM53.4199 47.1C54.8999 47.84 57.1399 49.2 58.1399 49.98L57.1599 51.58C56.1999 50.7 53.7999 49.28 52.5399 48.62L53.4199 47.1ZM42.8399 58.18C42.8399 58.98 44.0399 59.66 44.7199 59.66C45.1199 59.66 45.3999 59.4 45.3999 58.74C45.3999 58.1 45.3599 56.94 45.3399 55.64C43.8799 56.36 42.8399 57.38 42.8399 58.18ZM66.4199 46.5H62.6599V47.9H66.4199V46.5ZM62.6599 50.72H66.4199V49.22H62.6599V50.72ZM68.1799 52.18H62.6599V62.58H60.8199V45.02H68.1799V52.18ZM70.9599 55.34H66.8799V58.24H70.9599V55.34ZM72.6999 59.78H66.8799V60.94H65.1599V53.78H72.6999V59.78ZM71.5399 50.74H75.3999V49.22H71.5399V50.74ZM75.3999 46.48H71.5399V47.9H75.3999V46.48ZM77.2999 45.02V60.22C77.2999 61.34 77.0399 61.92 76.3199 62.24C75.5799 62.54 74.3999 62.56 72.5999 62.56C72.5399 62.04 72.2399 61.18 71.9599 60.66C73.2199 60.72 74.5199 60.7 74.9199 60.7C75.2999 60.68 75.3999 60.56 75.3999 60.2V52.2H69.7599V45.02H77.2999ZM83.7799 46.9C83.6799 47.48 83.5799 48.52 83.5799 49.06C83.5599 50.32 83.5799 52 83.7199 53.56C84.0199 56.7 84.8399 58.82 86.1799 58.82C87.1799 58.82 88.0599 56.64 88.5199 54.82L90.0999 56.68C88.8399 60.1 87.5999 61.28 86.1399 61.28C84.1199 61.28 82.2599 59.36 81.7199 54.1C81.5199 52.34 81.4999 49.94 81.4999 48.74C81.4999 48.24 81.4599 47.4 81.3399 46.86L83.7799 46.9ZM94.0199 47.4C95.8599 49.72 97.3399 54.3 97.5999 57.54L95.5399 58.34C95.1999 54.9 94.0599 50.46 92.0399 48.06L94.0199 47.4ZM113.32 56.24H104.72V60.16H113.32V56.24ZM102.9 62.6V54.56H115.22V62.6H113.32V61.82H104.72V62.6H102.9ZM104.44 50.64H113.66C111.78 49.24 110.06 47.62 108.94 46.08C107.92 47.56 106.32 49.2 104.44 50.64ZM107.9 44.26H109.8C111.94 47.24 115.32 49.88 118.46 51.24C118 51.7 117.56 52.34 117.24 52.9C116.18 52.34 115.06 51.66 114 50.88V52.3H104.04V50.94C103.02 51.7 101.92 52.38 100.82 52.98C100.6 52.54 100.06 51.88 99.6799 51.5C103.1 49.76 106.38 46.76 107.9 44.26ZM124.68 46.6C124.68 46.08 124.68 45.52 124.6 44.98L126.94 45.06C126.82 45.58 126.66 46.64 126.52 47.94H126.54L127.22 48.78C126.98 49.14 126.6 49.72 126.28 50.22C126.26 50.54 126.22 50.88 126.2 51.2C128.34 49.54 130.5 48.9 132.36 48.9C135.26 48.9 137.72 50.94 137.72 54.1C137.74 58.14 134.98 60.38 130.34 61.28L129.42 59.38C132.86 58.86 135.66 57.36 135.64 54.06C135.64 52.5 134.42 50.74 132.04 50.74C129.82 50.74 127.82 51.84 126.06 53.46C126.02 54.2 126 54.9 126 55.54C126 57.28 125.98 58.7 126.1 60.52C126.12 60.88 126.16 61.46 126.2 61.88H124.04C124.06 61.52 124.1 60.88 124.1 60.56C124.12 58.68 124.12 57.54 124.18 55.32C123.24 56.7 122.06 58.42 121.22 59.58L119.98 57.84C121.1 56.44 123.26 53.56 124.34 51.92C124.38 51.36 124.42 50.76 124.46 50.2C123.52 50.32 121.86 50.54 120.66 50.7L120.46 48.66C120.96 48.68 121.38 48.68 121.96 48.64C122.58 48.6 123.62 48.48 124.58 48.34C124.64 47.48 124.68 46.82 124.68 46.6ZM154.02 45.46C153.96 45.78 153.92 46.56 153.92 47.04C153.9 47.9 153.9 48.76 153.88 49.56C154.56 49.5 155.22 49.46 155.78 49.42C156.3 49.4 156.98 49.34 157.5 49.3V51.26C157.16 51.24 156.28 51.26 155.76 51.28C155.24 51.28 154.58 51.32 153.84 51.36C153.8 52.88 153.72 54.58 153.54 55.48C153.34 56.44 152.88 56.7 151.92 56.7C151.2 56.7 149.72 56.5 149.12 56.4L149.16 54.66C149.82 54.8 150.66 54.92 151.08 54.92C151.54 54.92 151.74 54.84 151.78 54.4C151.88 53.8 151.94 52.64 151.98 51.5C150.04 51.66 147.86 51.86 146 52.06C145.98 54.02 145.96 56 146 56.82C146.06 58.88 146.14 59.52 149.4 59.52C151.48 59.52 153.98 59.28 155.36 59.02L155.3 61.16C153.96 61.32 151.5 61.5 149.52 61.5C144.66 61.5 144.14 60.42 144.06 57.12C144.04 56.26 144.04 54.2 144.04 52.28C143.3 52.36 142.68 52.42 142.24 52.48C141.62 52.56 140.58 52.7 140.06 52.78L139.84 50.74C140.44 50.74 141.26 50.7 142.1 50.62C142.54 50.58 143.2 50.52 144.04 50.44C144.04 49.28 144.04 48.34 144.04 48C144.04 47.3 144 46.72 143.9 46.08H146.12C146.06 46.62 146.02 47.18 146.02 47.9C146.02 48.46 146.02 49.3 146 50.26C147.84 50.08 150.02 49.88 152.02 49.7C152.02 48.84 152.02 47.92 152.02 47.1C152.02 46.64 151.94 45.82 151.88 45.46H154.02Z" fill="white"/>
<path d="M65.5502 146.05C56.7752 146.05 50.8502 142.75 46.9502 138.325L52.1252 131.35C55.4252 134.575 59.4752 137.05 64.5002 137.05C70.1252 137.05 73.9502 134.275 73.9502 129.25C73.9502 123.85 70.7252 120.4 58.6502 120.4V112.525C68.8502 112.525 72.1502 109 72.1502 104.05C72.1502 99.7 69.4502 97.15 64.7252 97.15C60.7502 97.15 57.5252 98.95 54.2252 102.025L48.6002 95.275C53.4002 91.075 58.7252 88.45 65.2502 88.45C75.9752 88.45 83.2502 93.775 83.2502 103.225C83.2502 109.225 79.8752 113.575 74.0252 115.9V116.275C80.2502 118 85.0502 122.65 85.0502 129.925C85.0502 140.125 76.1252 146.05 65.5502 146.05Z" fill="white"/>
<mask id="mask0_121_134" style="mask-type:luminance" maskUnits="userSpaceOnUse" x="43" y="85" width="46" height="65">
<path d="M89 85H43V150H89V85Z" fill="white"/>
<path d="M65.5502 146.05C56.7752 146.05 50.8502 142.75 46.9502 138.325L52.1252 131.35C55.4252 134.575 59.4752 137.05 64.5002 137.05C70.1252 137.05 73.9502 134.275 73.9502 129.25C73.9502 123.85 70.7252 120.4 58.6502 120.4V112.525C68.8502 112.525 72.1502 109 72.1502 104.05C72.1502 99.7 69.4502 97.15 64.7252 97.15C60.7502 97.15 57.5252 98.95 54.2252 102.025L48.6002 95.275C53.4002 91.075 58.7252 88.45 65.2502 88.45C75.9752 88.45 83.2502 93.775 83.2502 103.225C83.2502 109.225 79.8752 113.575 74.0252 115.9V116.275C80.2502 118 85.0502 122.65 85.0502 129.925C85.0502 140.125 76.1252 146.05 65.5502 146.05Z" fill="white"/>
</mask>
<g mask="url(#mask0_121_134)">
<path d="M46.9496 138.325L44.5403 136.537L43.0938 138.487L44.6991 140.309L46.9496 138.325ZM52.1246 131.35L54.2215 129.204L51.7633 126.802L49.7153 129.562L52.1246 131.35ZM58.6497 120.4H55.6497V123.4H58.6497V120.4ZM58.6497 112.525V109.525H55.6497V112.525H58.6497ZM54.2246 102.025L51.9199 103.946L53.9499 106.382L56.2698 104.22L54.2246 102.025ZM48.5996 95.275L46.6241 93.0173L44.4202 94.9458L46.2949 97.1955L48.5996 95.275ZM74.0247 115.9L72.9166 113.112L71.0247 113.864V115.9H74.0247ZM74.0247 116.275H71.0247V118.557L73.2235 119.166L74.0247 116.275ZM65.5497 143.05C57.6285 143.05 52.5257 140.115 49.2002 136.341L44.6991 140.309C49.1736 145.385 55.9209 149.05 65.5497 149.05V143.05ZM49.3589 140.113L54.534 133.138L49.7153 129.562L44.5403 136.537L49.3589 140.113ZM50.0278 133.496C53.636 137.022 58.3975 140.05 64.4996 140.05V134.05C60.5517 134.05 57.2133 132.128 54.2215 129.204L50.0278 133.496ZM64.4996 140.05C67.765 140.05 70.8593 139.248 73.2032 137.381C75.6332 135.445 76.9496 132.602 76.9496 129.25H70.9496C70.9496 130.923 70.3536 131.98 69.4648 132.688C68.49 133.464 66.8592 134.05 64.4996 134.05V140.05ZM76.9496 129.25C76.9496 125.866 75.8762 122.551 72.4873 120.301C69.4089 118.257 64.8354 117.4 58.6497 117.4V123.4C64.539 123.4 67.6155 124.268 69.1684 125.299C70.4107 126.124 70.9496 127.234 70.9496 129.25H76.9496ZM61.6497 120.4V112.525H55.6497V120.4H61.6497ZM58.6497 115.525C63.9954 115.525 68.1195 114.62 70.9683 112.585C74.0206 110.405 75.1497 107.273 75.1497 104.05H69.1497C69.1497 105.777 68.6286 106.883 67.4809 107.703C66.1297 108.668 63.504 109.525 58.6497 109.525V115.525ZM75.1497 104.05C75.1497 101.24 74.2599 98.6459 72.256 96.7756C70.2808 94.932 67.606 94.15 64.7246 94.15V100.15C66.5682 100.15 67.606 100.643 68.162 101.162C68.6894 101.654 69.1497 102.51 69.1497 104.05H75.1497ZM64.7246 94.15C59.6902 94.15 55.7669 96.4873 52.1794 99.8302L56.2698 104.22C59.2823 101.413 61.809 100.15 64.7246 100.15V94.15ZM56.5294 100.104L50.9044 93.3544L46.2949 97.1955L51.9199 103.946L56.5294 100.104ZM50.5751 97.5327C54.9877 93.6717 59.6384 91.45 65.2496 91.45V85.45C57.8108 85.45 51.8115 88.4783 46.6241 93.0173L50.5751 97.5327ZM65.2496 91.45C70.1547 91.45 73.926 92.6709 76.4043 94.6418C78.7986 96.5458 80.2496 99.3494 80.2496 103.225H86.2496C86.2496 97.6506 84.0632 93.0667 80.1388 89.9457C76.2983 86.8916 71.0695 85.45 65.2496 85.45V91.45ZM80.2496 103.225C80.2496 105.633 79.5829 107.584 78.4194 109.156C77.2409 110.748 75.432 112.112 72.9166 113.112L75.1327 118.688C78.4673 117.363 81.2708 115.389 83.2423 112.725C85.2288 110.041 86.2496 106.817 86.2496 103.225H80.2496ZM71.0247 115.9V116.275H77.0247V115.9H71.0247ZM73.2235 119.166C78.4654 120.619 82.0497 124.301 82.0497 129.925H88.0497C88.0497 120.999 82.0339 115.381 74.8258 113.384L73.2235 119.166ZM82.0497 129.925C82.0497 134.05 80.2861 137.224 77.4265 139.442C74.4997 141.712 70.3105 143.05 65.5497 143.05V149.05C71.3639 149.05 76.9246 147.425 81.104 144.183C85.3507 140.889 88.0497 136 88.0497 129.925H82.0497Z" fill="white"/>
</g>
<path d="M100.78 125.12L103.04 125.84C102.52 127.22 101.86 128.62 101.12 129.96V143.7H98.8602V133.48C98.4202 134.06 97.9602 134.6 97.5002 135.08C97.2802 134.5 96.6402 133.18 96.2402 132.62C98.0402 130.82 99.7602 127.98 100.78 125.12ZM111.78 138.02H106.04V140.7H111.78V138.02ZM103.72 143.74V135.86H114.2V143.64H111.78V142.9H106.04V143.74H103.72ZM110.96 129.18H106.5C106.92 130.08 107.26 131.2 107.38 131.94L106.32 132.22H111.1L110.04 132.02C110.36 131.22 110.76 130.06 110.96 129.18ZM112.24 132.22H115.42V134.4H102.08V132.22H105.14C105.02 131.42 104.72 130.34 104.34 129.48L105.64 129.18H102.82V127.06H107.58V125.08H110.02V127.06H115.02V129.18H111.78L113.36 129.46C112.96 130.5 112.58 131.5 112.24 132.22ZM128.36 132.22L126.02 133.46C125.52 132.08 124.24 129.98 123.04 128.5L125.2 127.42C126.5 128.88 127.76 130.84 128.36 132.22ZM124.7 135.76L125.24 138.1C122.6 139.28 119.64 140.54 117.38 141.48L116.58 138.94C117.34 138.68 118.24 138.36 119.24 137.96L118.84 126.28L121.32 126.18L121.68 137C122.68 136.58 123.7 136.16 124.7 135.76ZM135.56 141.74L133.52 143.72C132.76 142.42 131.26 140.58 129.78 138.9C128.32 140.98 126.34 142.58 123.7 143.76C123.36 143.24 122.38 142.16 121.8 141.66C128.14 139.26 130.2 134.42 130.94 126.2L133.56 126.44C133.14 130.54 132.42 133.88 131.12 136.6C132.78 138.32 134.64 140.34 135.56 141.74ZM146.64 140.36H155.1V142.76H136.92V140.36H144.08V125.3H146.64V131.02H153.7V133.44H146.64V140.36Z" fill="white"/>
</g>
<defs>
<clipPath id="clip0_121_134">
<rect width="197" height="197" fill="white"/>
</clipPath>
</defs>
</svg>
